<svg width="86" height="86" viewBox="0 0 86 86" fill="none" xmlns="http://www.w3.org/2000/svg">
<g clip-path="url(#clip0_8639_114248)">
<path fill-rule="evenodd" clip-rule="evenodd" d="M0.123047 0.395508H85.555V85.8274H0.123047V0.395508Z" fill="#6B5C5E"/>
<path d="M25.4115 35.0137C25.4115 41.7039 17.6519 51.5514 9.5774 55.3106L9.50195 55.2795C11.0765 59.616 13.4793 63.5623 16.4841 66.9558L16.5071 66.9361C22.8922 63.6377 27.9816 57.2854 31.9164 49.7767C28.4704 46.0405 25.4115 38.4908 25.4115 35.0137Z" fill="#FDC600"/>
<path d="M42.8882 35.0137C42.6782 45.0531 34.9236 65.1942 25.6436 74.2102C30.7461 77.0477 36.631 78.6665 42.8882 78.673C49.1519 78.6665 55.027 77.0493 60.1344 74.2102C50.8577 65.1942 43.1014 45.0531 42.8882 35.0137Z" fill="#FDC600"/>
<path d="M60.3656 35.0137C60.3656 41.7039 68.117 51.5514 76.1981 55.3106L76.2735 55.2795C74.7055 59.616 72.2961 63.5623 69.293 66.9558L69.2667 66.9361C62.8865 63.6377 57.7922 57.2854 53.8525 49.7767C57.3018 46.0405 60.3656 38.4908 60.3656 35.0137Z" fill="#FDC600"/>
<path d="M35.3471 42.283C39.5295 31.8188 41.8454 20.2688 42.613 12.1336C42.6524 11.7236 42.7852 9.06163 42.7852 7.64453C36.5788 7.67569 30.7317 9.27485 25.5127 12.1746C25.5685 14.1068 25.7325 15.7961 25.8178 16.5178C26.8248 24.8088 29.7837 38.7305 35.3471 42.283Z" fill="#FDC600"/>
<path d="M25.1212 16.5085C25.1835 15.8918 25.2606 14.209 25.3163 12.29C14.6061 18.4111 7.37793 29.9431 7.37793 43.148C7.37793 44.3092 7.47142 46.3791 7.56983 47.5108C19.338 42.6051 23.8058 29.4937 25.1212 16.5085Z" fill="#FDC600"/>
<path d="M50.431 42.283C46.247 31.8188 43.9311 20.2688 43.1635 12.1336C43.1192 11.7236 42.9863 9.06163 42.9863 7.64453C49.1894 7.67569 55.0415 9.27485 60.2572 12.1746C60.1998 14.1068 60.0473 15.7961 59.957 16.5178C58.9483 24.8088 55.9862 38.7305 50.431 42.283Z" fill="#FDC600"/>
<path d="M60.6587 16.5085C60.598 15.8918 60.5078 14.209 60.4668 12.29C71.1705 18.4128 78.397 29.9431 78.397 43.1496C78.397 44.3109 78.3134 46.3807 78.2051 47.5124C66.4435 42.6051 61.9741 29.4937 60.6587 16.5085Z" fill="#FDC600"/>
</g>
<defs>
<clipPath id="clip0_8639_114248">
<rect x="0.125" y="0.393555" width="85.5392" height="85.5392" rx="42.7696" fill="white"/>
</clipPath>
</defs>
</svg>
