<svg width="86" height="86" viewBox="0 0 86 86" fill="none" xmlns="http://www.w3.org/2000/svg">
<g clip-path="url(#clip0_8639_114242)">
<path fill-rule="evenodd" clip-rule="evenodd" d="M0.27832 43.1085C0.27832 19.5172 19.4029 0.392578 42.9943 0.392578C66.5856 0.392578 85.7102 19.5172 85.7102 43.1085C85.7102 66.6999 66.5856 85.8245 42.9943 85.8245C19.4029 85.8245 0.27832 66.6999 0.27832 43.1085Z" fill="#1F4396"/>
<path d="M68.4361 44.8573C67.7939 42.4289 66.8651 40.6312 65.3666 37.8851C64.8775 37.106 64.2457 36.2359 63.6817 35.3128C57.1665 25.6522 44.312 8.79261 43.1358 7.70961C43.1358 7.70961 43.0552 7.64746 42.9896 7.64746C42.916 7.64746 42.8343 7.70961 42.8343 7.70961C41.665 8.79146 28.8071 25.6522 22.2895 35.3128C21.7267 36.237 21.0949 37.1071 20.6011 37.8851C19.105 40.6312 18.1796 42.4289 17.534 44.8573C16.7353 48.3641 16.695 52.7248 17.4212 56.3099C18.0772 59.4565 21.0673 62.6709 24.0746 65.0717L28.677 68.727C28.677 68.727 41.5407 78.0021 42.7353 78.5879C42.7353 78.5879 42.8538 78.6662 42.9885 78.6662C43.1197 78.6662 43.2336 78.5879 43.2336 78.5879C44.4329 78.001 57.2885 68.727 57.2885 68.727L61.8909 65.0717C64.9017 62.6709 67.8883 59.4565 68.5431 56.3099C69.2705 52.7248 69.2371 48.3641 68.4361 44.8573ZM38.9569 69.0492C38.866 69.1874 38.6576 69.1436 38.508 69.1298C37.7565 68.6015 35.8932 67.2527 35.8932 67.2527C32.6902 64.8784 29.4596 62.6871 26.389 60.246C21.6772 55.06 22.1549 49.8856 23.5992 44.6858C23.651 44.3509 23.8064 43.8433 24.2495 43.7524C25.5776 45.7124 28.3951 49.7498 28.3951 49.7498C31.1365 53.6905 34.4661 57.2421 37.6138 60.9423C39.7752 62.9276 38.9016 66.2618 38.9569 69.0492ZM42.9931 58.7671C42.9286 58.7648 42.8251 58.7211 42.7272 58.6198C38.6496 53.7906 34.0241 48.3307 29.966 43.4819C29.2318 42.2528 28.4837 41.072 28.3997 39.4883C28.3513 38.2522 28.2742 37.114 29.2974 35.5649C29.2974 35.5649 29.9729 34.5832 30.1663 34.2943C30.1663 34.2943 38.4804 22.6023 42.8584 17.0618C42.8584 17.0618 42.916 16.9859 42.9896 16.9859C43.0518 16.9859 43.107 17.0618 43.107 17.0618C47.4851 22.6011 55.7969 34.2943 55.7969 34.2943C55.9937 34.5832 56.6704 35.5649 56.6704 35.5649C57.6901 37.1152 57.613 38.2522 57.5589 39.4883C57.4783 41.072 56.7268 42.2516 55.9971 43.4819C51.9368 48.3307 47.3136 53.7906 43.2394 58.6198C43.1416 58.7211 43.0437 58.7648 42.9931 58.7671ZM59.5557 60.246C56.4851 62.6871 53.2499 64.8772 50.0458 67.2527C50.0458 67.2527 48.186 68.6015 47.4321 69.1298C47.2825 69.1436 47.0742 69.1874 46.9867 69.0492C47.0431 66.2618 46.1673 62.9287 48.331 60.9434C51.4787 57.2433 54.806 53.6916 57.5462 49.7509C57.5462 49.7509 60.3637 45.7136 61.693 43.7536C62.1291 43.8433 62.288 44.352 62.3409 44.6869C63.7922 49.8856 64.2652 55.0612 59.5557 60.246Z" fill="white"/>
</g>
<defs>
<clipPath id="clip0_8639_114242">
<rect width="85.5392" height="85.5392" fill="white" transform="translate(0.28125 0.393555)"/>
</clipPath>
</defs>
</svg>
