<svg width="86" height="86" viewBox="0 0 86 86" fill="none" xmlns="http://www.w3.org/2000/svg">
<g clip-path="url(#clip0_8639_114211)">
<path fill-rule="evenodd" clip-rule="evenodd" d="M-2.02832 43.1604C-2.02832 18.2039 18.2029 -2.02734 43.1594 -2.02734C68.1159 -2.02734 88.3471 18.2039 88.3471 43.1604C88.3471 68.1168 68.1159 88.348 43.1594 88.348C18.2029 88.348 -2.02832 68.1168 -2.02832 43.1604Z" fill="white"/>
<path d="M60.45 35.2629L58.853 36.9936L57.2449 38.3397L55.093 40.2756L53.3146 41.0265L51.604 42.314L50.0326 43.5576L48.0491 44.9934L46.6133 46.3615L45.9301 47.2498L45.2452 48.6857L45.4521 50.3267L45.5199 52.2405L45.6554 54.8394L45.0657 57.8265L45.1097 59.0096L44.8093 59.1085L44.084 58.0536L43.8789 54.702L44.0163 50.942L43.8789 47.0447L45.3825 44.5154L49.8275 41.0961L53.93 38.087L57.69 35.0797L59.4683 32.7538L60.4939 30.6348L60.5617 33.2318L60.5782 34.7501L60.45 35.2629Z" fill="#8AC641"/>
<path fill-rule="evenodd" clip-rule="evenodd" d="M24.0386 18.8516L23.7822 24.1079L23.9104 27.9539V29.6206L24.1668 31.1608L24.8078 32.6993L25.4489 34.4941L26.4745 35.9043L27.3737 37.0581L29.0404 38.4684L30.577 39.494L31.7326 40.5196L33.0146 41.417L34.4249 42.1862L35.4505 43.2119L36.8607 44.1093L37.5017 44.7503L38.1427 45.7759L38.7837 46.6733L38.9119 47.9553L39.1683 52.5706L39.2965 62.314L39.1683 63.2114L39.4248 65.3909H46.4759L46.7323 63.596V60.7756L46.9887 59.4936L47.6297 58.5961L48.0143 57.9551L49.8091 56.4167L51.604 55.1347L53.527 53.4681L55.0654 52.3142L56.9885 50.7758L58.7833 49.3656L59.5525 48.2118L59.9371 47.3143L60.4499 45.7759L60.3217 35.1351L59.5525 36.0307L58.3987 37.0581L57.2449 38.212L55.8347 39.3658L54.2962 40.5196L52.886 41.2888L51.604 42.1862L50.1938 43.3401L48.9117 44.3657L47.6297 45.5195L46.0913 46.8015L45.3221 48.2118L45.0657 49.622L45.3221 51.6732V54.2373L45.4503 56.4167L45.1939 57.8269L45.0657 58.8526L44.6811 59.2372L44.4246 57.4423V55.1347L44.1682 52.186L44.2964 49.7502L44.1682 48.0835L44.5528 46.4169L45.5785 45.3913L47.5015 43.5965L51.4758 40.6478L54.0398 38.853L56.2193 37.0581L57.6295 35.9043L58.6551 35.2633L59.1679 34.7505L59.6807 34.1077L59.9371 33.4685L60.1935 32.6993L60.3217 31.8018L60.7064 23.9797V22.5694L60.9628 21.1592L61.091 20.0054L60.9628 18.8516L59.9371 19.8772L59.4243 20.6464L58.9115 21.672L58.1423 22.8277L57.3731 23.8515L56.3475 24.7489L51.604 28.2103L49.1681 30.007L47.1169 31.5454L45.4503 32.6993L43.7836 34.3659L43.1426 35.2633L43.0144 36.0307L42.8862 36.8017L42.2452 38.0819L41.6042 37.3145V36.1607L41.2196 35.0069L40.194 33.9794L35.5787 30.518L32.5018 28.084L29.425 25.3917L27.5001 23.4668L26.0899 21.8002L25.0643 20.5182L24.0386 18.8516Z" fill="#00A262"/>
<path d="M24.1681 18.8507L23.9117 24.107H23.6553L23.9117 18.8507H24.1681ZM23.6553 24.107H23.7835H23.6553ZM23.9117 24.107L24.0399 27.9531H23.7835L23.6553 24.107H23.9117ZM23.7835 27.9531H23.9117H23.7835ZM24.0399 27.9531L24.1681 29.6197H23.7835V27.9531H24.0399ZM23.7835 29.6197H23.9117H23.7835ZM24.0399 29.4933L24.4245 31.0318L24.0399 31.16L23.7835 29.6197L24.0399 29.4933ZM24.0399 31.16H24.1681H24.0399ZM24.4245 31.0318L24.9373 32.6984L24.6809 32.8266L24.0399 31.16L24.4245 31.0318ZM24.6809 32.8266L24.8091 32.6984L24.6809 32.8266ZM24.9373 32.6984L25.5801 34.4932L25.3219 34.6214L24.6809 32.8266L24.9373 32.6984ZM25.3219 34.6214L25.4501 34.4932L25.3219 34.6214ZM25.5801 34.4932L26.6058 35.9035L26.3475 36.0298L25.3219 34.6214L25.5801 34.4932ZM26.6058 35.9035L27.5013 36.9291L27.2449 37.1855L26.3475 36.0298L26.6058 35.9035ZM27.2449 37.1855L27.375 37.0573L27.2449 37.1855ZM27.375 36.9291L29.0416 38.3393L28.9116 38.5957L27.2449 37.1855L27.375 36.9291ZM28.9116 38.5957L29.0416 38.4675L28.9116 38.5957ZM29.0416 38.3393L30.5782 39.3649L30.4518 39.6213L28.9116 38.5957L29.0416 38.3393ZM30.5782 39.3649V39.4931V39.3649ZM30.5782 39.3649L31.8621 40.3905L31.6038 40.6469L30.4518 39.4931L30.5782 39.3649ZM31.6038 40.6469L31.7339 40.5187L31.6038 40.6469ZM31.8621 40.3905L33.1441 41.288L33.0159 41.5444L31.6038 40.6469L31.8621 40.3905ZM33.1441 41.288L34.4261 42.0572L34.2961 42.3136L33.0159 41.5444L33.1441 41.288ZM34.4261 42.0572V42.1854V42.0572ZM34.4261 42.0572L35.5799 43.0828L35.4517 43.3392L34.2961 42.3136L34.4261 42.0572ZM35.4517 43.3392V43.211V43.3392ZM35.5799 43.0828L36.862 43.9802L36.7338 44.2366L35.4517 43.3392L35.5799 43.0828ZM36.862 43.9802H36.9902L36.862 44.1084V43.9802ZM36.9902 43.9802L37.6312 44.7494L37.503 44.8776L36.7338 44.2366L36.9902 43.9802ZM37.6312 44.7494H37.503H37.6312ZM37.6312 44.7494L38.2722 45.775L38.0158 45.9032L37.3748 44.8776L37.6312 44.7494ZM38.0158 45.9032L38.144 45.775L38.0158 45.9032ZM38.2722 45.775L38.9132 46.6725L38.6568 46.8007L38.0158 45.9032L38.2722 45.775ZM38.9132 46.6725H38.785H38.9132ZM38.9132 46.6725L39.0414 47.9545H38.785L38.6568 46.8007L38.9132 46.6725ZM39.0414 47.9545H38.9132H39.0414ZM39.0414 47.9545L39.426 52.5698H39.0414L38.785 47.9545H39.0414ZM39.426 52.5698H39.1696H39.426ZM39.426 52.5698V62.3132H39.1696L39.0414 52.5698H39.426ZM39.426 62.3132H39.2978H39.426ZM39.426 62.3132V63.2106H39.0414L39.1696 62.3132H39.426ZM39.0414 63.2106H39.1696H39.0414ZM39.426 63.2106L39.5542 65.39H39.2978L39.0414 63.2106H39.426ZM39.426 65.5182H39.2978V65.39H39.426V65.5182ZM39.426 65.2618H46.4771V65.5182H39.426V65.2618ZM46.6053 65.39V65.5182H46.4771V65.39H46.6053ZM46.3489 65.2618L46.6053 63.5952H46.9899L46.6053 65.39L46.3489 65.2618ZM46.9899 63.5952H46.7335H46.9899ZM46.6053 63.5952V62.6978H46.9899V63.5952H46.6053ZM46.9899 62.6978H46.7335H46.9899ZM46.6053 62.6978V60.7747H46.8617L46.9899 62.6978H46.6053ZM46.6053 60.7747H46.7335H46.6053ZM46.6053 60.7747L46.8617 59.3645L47.2464 59.4927L46.8617 60.7747H46.6053ZM46.8617 59.3645H46.9899V59.4927L46.8617 59.3645ZM46.9899 59.3645L47.5028 58.5953L47.7592 58.7235L47.1182 59.4927L46.9899 59.3645ZM47.5028 58.5953H47.631H47.5028ZM47.5028 58.5953L47.8874 57.9543L48.1438 58.0825L47.7592 58.7235L47.5028 58.5953ZM47.8874 57.9543V57.8261L48.0156 57.9543H47.8874ZM47.8874 57.8261L49.6822 56.4158L49.8104 56.544L48.1438 58.0825L47.8874 57.8261ZM49.6822 56.4158H49.8104H49.6822ZM49.6822 56.4158L51.477 55.0056L51.6052 55.262L49.8104 56.544L49.6822 56.4158ZM51.6052 55.262V55.1338V55.262ZM51.477 55.0056L53.4001 53.339L53.5283 53.4672L51.6052 55.262L51.477 55.0056ZM53.4001 53.339L53.5283 53.4672L53.4001 53.339ZM53.4001 53.339L54.9385 52.1852L55.1949 52.4416L53.5283 53.5954L53.4001 53.339ZM55.1949 52.4416L55.0667 52.3134L55.1949 52.4416ZM54.9385 52.3134L56.8615 50.7749L56.9897 50.9031L55.1949 52.4416L54.9385 52.3134ZM56.8615 50.7749H56.9897H56.8615ZM56.8615 50.7749L58.6564 49.2365L58.9128 49.4929L56.9897 50.9031L56.8615 50.7749ZM58.9128 49.4929L58.7846 49.3647L58.9128 49.4929ZM58.6564 49.3647L59.4256 48.0827L59.682 48.2109L58.9128 49.4929L58.6564 49.3647ZM59.682 48.2109H59.5538H59.682ZM59.4256 48.0827L59.8102 47.3135L60.0666 47.4417L59.682 48.2109L59.4256 48.0827ZM60.0666 47.3135V47.4417L59.9384 47.3135H60.0666ZM59.8102 47.3135L60.323 45.775L60.5794 45.9032L60.0666 47.3135H59.8102ZM60.5794 45.775V45.9032L60.4512 45.775H60.5794ZM60.323 45.775L60.1948 35.1342H60.5794V45.775H60.323ZM60.323 35.006L60.5794 34.7496V35.1342H60.323V35.006ZM60.4512 35.2624L59.682 36.1599L59.4256 35.9035L60.323 35.006L60.4512 35.2624ZM59.682 36.1599L59.5538 36.0298L59.682 36.1599ZM59.682 36.1599L58.5282 37.0573L58.2718 36.9291L59.5538 35.9035L59.682 36.1599ZM58.2718 36.9291L58.4 37.0573L58.2718 36.9291ZM58.5282 37.0573L57.2461 38.3393L57.1179 38.2111L58.2718 36.9291L58.5282 37.0573ZM57.2461 38.3393V38.2111V38.3393ZM57.2461 38.3393L55.8359 39.3649L55.7077 39.2367L57.1179 38.0811L57.2461 38.3393ZM55.7077 39.2367L55.8359 39.3649L55.7077 39.2367ZM55.8359 39.3649L54.4257 40.6469L54.1693 40.3905L55.7077 39.2367L55.8359 39.3649ZM54.4257 40.6469H54.2975V40.5187L54.4257 40.6469ZM54.2975 40.6469L53.0155 41.4162L52.7591 41.1598L54.1693 40.3905L54.2975 40.6469ZM52.7591 41.1598L52.8873 41.288L52.7591 41.1598ZM53.0155 41.4162L51.6052 42.3136L51.477 42.0572L52.7591 41.1598L53.0155 41.4162ZM51.477 42.0572L51.6052 42.1854L51.477 42.0572ZM51.6052 42.3136L50.195 43.4674L50.0668 43.211L51.477 42.0572L51.6052 42.3136ZM50.0668 43.211L50.195 43.3392L50.0668 43.211ZM50.3232 43.4674L49.0412 44.493L48.913 44.2366L50.0668 43.211L50.3232 43.4674ZM48.913 44.2366V44.3648V44.2366ZM49.0412 44.493L47.631 45.6468L47.5028 45.3904L48.913 44.2366L49.0412 44.493ZM47.5028 45.3904L47.631 45.5186L47.5028 45.3904ZM47.631 45.6468L46.2207 46.9289L45.9643 46.6725L47.5028 45.3904L47.631 45.6468ZM45.9643 46.6725L46.0925 46.8007L45.9643 46.6725ZM46.2207 46.9289L45.4515 48.3391L45.1951 48.2109L45.9643 46.6725L46.2207 46.9289ZM45.1951 48.2109H45.3233H45.1951ZM45.4515 48.3391L45.3233 49.6211H44.9387L45.1951 48.2109L45.4515 48.3391ZM44.9387 49.6211H45.0669H44.9387ZM45.3233 49.6211L45.4515 51.6724H45.1951L44.9387 49.6211H45.3233ZM45.4515 51.6724H45.3233H45.4515ZM45.4515 51.6724V54.2364H45.1951V51.6724H45.4515ZM45.1951 54.2364H45.3233H45.1951ZM45.4515 54.2364L45.5797 56.4158H45.1951V54.2364H45.4515ZM45.5797 56.4158V56.544L45.4515 56.4158H45.5797ZM45.5797 56.544L45.4515 57.8261H45.0669L45.1951 56.4158L45.5797 56.544ZM45.4515 57.8261H45.1951H45.4515ZM45.4515 57.8261L45.3233 58.8517L44.9387 58.7235L45.0669 57.8261H45.4515ZM45.3233 58.8517H45.0669H45.3233ZM45.1951 58.8517L44.8105 59.2363L44.6823 59.1081L45.0669 58.7235L45.1951 58.8517ZM44.8105 59.2363L44.6823 59.4927L44.5541 59.2363H44.8105ZM44.5541 59.2363L44.2977 57.4415H44.5541L44.8105 59.1081L44.5541 59.2363ZM44.2977 57.4415H44.4259H44.2977ZM44.2977 57.4415V55.1338H44.5541V57.4415H44.2977ZM44.5541 55.0056V55.1338H44.4259L44.5541 55.0056ZM44.2977 55.1338L44.0413 52.1852H44.2977L44.5541 55.0056L44.2977 55.1338ZM44.0413 52.1852H44.1695H44.0413ZM44.0413 52.1852L44.1695 49.7493H44.4259L44.2977 52.1852H44.0413ZM44.4259 49.7493H44.2977H44.4259ZM44.1695 49.7493L44.0413 48.0827H44.2977L44.4259 49.7493H44.1695ZM44.0413 48.0827H44.1695H44.0413ZM44.0413 48.0827L44.4259 46.4161L44.6823 46.5443L44.2977 48.2109L44.0413 48.0827ZM44.4259 46.4161H44.5541H44.4259ZM44.4259 46.4161L45.4515 45.2622L45.7079 45.5186L44.6823 46.5443L44.4259 46.4161ZM45.4515 45.2622L45.5797 45.3904L45.4515 45.2622ZM45.4515 45.2622L47.3746 43.4674L47.631 43.5956L45.7079 45.5186L45.4515 45.2622ZM47.3746 43.4674L47.5028 43.5956L47.3746 43.4674ZM47.3746 43.4674L51.3488 40.6469L51.477 40.7751L47.631 43.7238L47.3746 43.4674ZM51.3488 40.6469H51.477H51.3488ZM51.3488 40.6469L53.9129 38.7239L54.0411 38.9803L51.477 40.7751L51.3488 40.6469ZM54.1693 38.9803H54.0411V38.8521L54.1693 38.9803ZM53.9129 38.7239L56.2205 36.9291L56.3487 37.0573L54.1693 38.9803L53.9129 38.7239ZM56.2205 36.9291V37.0573V36.9291ZM56.2205 36.9291L57.6308 35.7753L57.759 36.0298L56.3487 37.0573L56.2205 36.9291ZM57.759 36.0298L57.6308 35.9035L57.759 36.0298ZM57.6308 35.7753L58.5282 35.1342L58.6564 35.2624L57.759 36.0298L57.6308 35.7753ZM58.5282 35.1342L58.6564 35.2624L58.5282 35.1342ZM58.5282 35.1342L59.041 34.6214L59.2974 34.8778L58.6564 35.2624L58.5282 35.1342ZM59.2974 34.8778L59.1692 34.7496L59.2974 34.8778ZM59.041 34.6214L59.5538 34.1068L59.8102 34.2368L59.2974 34.8778L59.041 34.6214ZM59.8102 34.2368L59.682 34.1068L59.8102 34.2368ZM59.5538 34.1068L59.8102 33.4676L60.0666 33.5958L59.8102 34.2368L59.5538 34.1068ZM60.0666 33.4676V33.5958L59.9384 33.4676H60.0666ZM59.8102 33.4676L60.0666 32.6984H60.4512L60.0666 33.4676H59.8102ZM60.4512 32.6984H60.1948H60.4512ZM60.0666 32.6984L60.1948 31.801H60.4512V32.6984H60.0666ZM60.4512 31.801H60.323H60.4512ZM60.1948 31.801L60.4512 23.9788H60.8358L60.4512 31.801H60.1948ZM60.4512 23.9788H60.7076H60.4512ZM60.4512 23.9788L60.5794 22.5686H60.8358V23.9788H60.4512ZM60.5794 22.5686H60.7076H60.5794ZM60.5794 22.5686L60.8358 21.1583H61.0922L60.8358 22.5686H60.5794ZM61.0922 21.1583H60.964H61.0922ZM60.8358 21.1583L60.964 20.0045H61.2204L61.0922 21.1583H60.8358ZM61.2204 20.0045H61.0922H61.2204ZM60.964 20.0045L60.8358 18.8507H61.0922L61.2204 20.0045H60.964ZM60.8358 18.7225L61.0922 18.4661V18.8507H60.964L60.8358 18.7225ZM61.0922 18.9789L60.0666 20.0045L59.9384 19.7481L60.8358 18.7225L61.0922 18.9789ZM59.8102 19.8763V19.7481H59.9384V19.8763H59.8102ZM60.0666 20.0045L59.5538 20.7737L59.2974 20.5173L59.8102 19.8763L60.0666 20.0045ZM59.2974 20.5173L59.4256 20.6455L59.2974 20.5173ZM59.5538 20.6455L59.041 21.6712L58.7846 21.543L59.2974 20.5173L59.5538 20.6455ZM59.041 21.6712H58.9128H59.041ZM59.041 21.6712L58.2718 22.9532L58.0154 22.6968L58.7846 21.543L59.041 21.6712ZM58.2718 22.9532L58.1436 22.8268L58.2718 22.9532ZM58.2718 22.9532L57.5025 23.8506L57.2461 23.7224L58.1436 22.6968L58.2718 22.9532ZM57.5025 23.8506V23.9788L57.3743 23.8506H57.5025ZM57.5025 23.9788L56.4769 24.878L56.2205 24.6198L57.2461 23.7224L57.5025 23.9788ZM56.4769 24.878L56.3487 24.748L56.4769 24.878ZM56.4769 24.878L51.6052 28.3377L51.477 28.0831L56.2205 24.6198L56.4769 24.878ZM51.6052 28.3377V28.2095V28.3377ZM51.6052 28.3377L49.1694 30.1343L49.0412 29.8761L51.477 28.0831L51.6052 28.3377ZM49.0412 29.8761L49.1694 30.0061L49.0412 29.8761ZM49.1694 30.1343L47.2464 31.6709L47.1182 31.4164L49.0412 29.8761L49.1694 30.1343ZM47.2464 31.6709L47.1182 31.5446L47.2464 31.6709ZM47.2464 31.6709L45.5797 32.8266L45.3233 32.6984L47.1182 31.4164L47.2464 31.6709ZM45.3233 32.6984H45.4515H45.3233ZM45.5797 32.8266L44.6823 33.7222L44.4259 33.4676L45.3233 32.6984L45.5797 32.8266ZM44.4259 33.4676L44.5541 33.5958L44.4259 33.4676ZM44.6823 33.7222L43.7849 34.4932L43.6567 34.365L44.4259 33.4676L44.6823 33.7222ZM43.6567 34.365H43.7849H43.6567ZM43.9131 34.4932L43.2721 35.3906L43.0157 35.1342L43.6567 34.365L43.9131 34.4932ZM43.0157 35.2624V35.1342L43.1439 35.2624H43.0157ZM43.4003 35.2624L43.1439 36.0298L42.8875 35.9035L43.0157 35.2624H43.4003ZM42.8875 36.0298V35.9035L43.0157 36.0298H42.8875ZM43.1439 36.0298V36.9291L42.7593 36.8009L42.8875 36.0298H43.1439ZM43.1439 36.9291H43.0157L42.8875 36.8009L43.1439 36.9291ZM43.0157 36.9291L42.3747 38.0811L42.1183 37.9547L42.7593 36.8009L43.0157 36.9291ZM42.3747 38.0811L42.2465 38.3393L42.1183 38.0811H42.3747ZM42.1183 38.0811L41.4772 37.3137L41.7336 37.1855L42.3747 37.9547L42.1183 38.0811ZM41.4772 37.3137H41.6054H41.4772ZM41.4772 37.3137L41.349 36.1599H41.7336V37.3137H41.4772ZM41.7336 36.1599H41.6054H41.7336ZM41.349 36.2881L41.0926 35.006H41.349L41.7336 36.1599L41.349 36.2881ZM41.349 34.8778V35.006H41.2208L41.349 34.8778ZM41.0926 35.1342L40.067 34.1068L40.1952 33.8522L41.349 34.8778L41.0926 35.1342ZM40.1952 33.8522V33.9786V33.8522ZM40.067 34.1068L35.4517 30.6472L35.7081 30.3907L40.1952 33.8522L40.067 34.1068ZM35.4517 30.6472L35.5799 30.5171L35.4517 30.6472ZM35.4517 30.6472L32.3749 28.2095L32.6294 27.9531L35.7081 30.3907L35.4517 30.6472ZM32.3749 28.2095L32.5031 28.0831L32.3749 28.2095ZM32.3749 28.2095L29.2962 25.5172L29.5526 25.2608L32.6294 27.9531L32.3749 28.2095ZM29.2962 25.5172L29.4262 25.3909L29.2962 25.5172ZM29.2962 25.5172L27.5013 23.5942L27.6314 23.3378L29.5526 25.2608L29.2962 25.5172ZM27.5013 23.5942H27.375L27.5013 23.466V23.5942ZM27.375 23.5942L26.0911 21.9276L26.2193 21.6712L27.6314 23.3378L27.375 23.5942ZM26.2193 21.6712L26.0911 21.7994L26.2193 21.6712ZM26.0911 21.9276L24.9373 20.6455L25.1937 20.3891L26.2193 21.6712L26.0911 21.9276ZM24.9373 20.6455V20.5173H25.0655L24.9373 20.6455ZM24.9373 20.5173L23.9117 18.9789L24.1681 18.7225L25.1937 20.3891L24.9373 20.5173ZM23.9117 18.8507V18.3379L24.1681 18.7225L24.0399 18.8507H23.9117Z" fill="#00A262"/>
<path fill-rule="evenodd" clip-rule="evenodd" d="M18.4951 65.4991L20.1617 64.9863L21.7002 64.6017L22.854 63.9606L23.8796 63.3196L25.0334 62.5504L27.8539 61.2684L28.7513 61.012L30.1615 60.8838L31.7 61.1402L33.2384 61.9094L36.5717 63.7042L38.3665 64.4735L43.11 64.6017L48.1099 64.4735L50.5476 63.4478L53.3662 62.0376L54.65 61.3966L56.8295 61.1402L58.6243 61.2684L60.6756 62.0376L62.4704 63.0632L64.137 64.0889L65.8036 64.7299L67.4703 65.4991L61.0602 71.3964L59.1371 70.6272L57.0859 70.1144L54.9064 70.499L52.3424 71.5246L50.5476 72.5502L47.9817 74.4732L38.6229 74.6014L36.9563 73.3194L35.0332 72.1656L33.1102 70.8836L31.059 70.1144H28.7513L27.2129 70.7554L25.6745 71.781L22.213 69.6016L18.4951 65.4991Z" fill="#C18279"/>
<path d="M18.4957 65.3711L20.0341 64.8583L20.1623 65.1147L18.6239 65.6276L18.4957 65.3711ZM20.0341 64.8583L21.7007 64.4737V64.7301L20.1623 65.1147L20.0341 64.8583ZM21.8289 64.7301H21.7007V64.6019L21.8289 64.7301ZM21.7007 64.4737L22.8545 63.8327L22.9827 64.0891L21.8289 64.7301L21.7007 64.4737ZM22.9827 64.0891L22.8545 63.9609L22.9827 64.0891ZM22.8545 63.8327L23.752 63.1917L24.0084 63.4481L22.9827 64.0891L22.8545 63.8327ZM24.0084 63.4481L23.8802 63.3199L24.0084 63.4481ZM23.752 63.1917L24.9058 62.4225L25.1622 62.6789L24.0084 63.4481L23.752 63.1917ZM24.9058 62.4225L25.034 62.5507L24.9058 62.4225ZM24.9058 62.4225L26.4442 61.7815L26.5724 62.0379L25.034 62.6789L24.9058 62.4225ZM26.4442 61.7815V61.9097V61.7815ZM26.4442 61.7815L27.8544 61.1405L27.9826 61.3969L26.5724 62.0379L26.4442 61.7815ZM27.8544 61.1405V61.2687V61.1405ZM27.8544 61.1405L28.7519 60.8841L28.8801 61.1405L27.8544 61.3969V61.1405ZM28.7519 60.8841V61.0123V60.8841ZM28.7519 60.8841L30.1621 60.7559V61.0123L28.7519 61.1405V60.8841ZM30.1621 60.7559V60.8841V60.7559ZM30.1621 60.7559L31.7005 61.0123V61.2687L30.1621 61.0123V60.7559ZM31.7005 61.0123H31.8287L31.7005 61.1405V61.0123ZM31.8287 61.0123L33.2389 61.7815V62.0379L31.7005 61.2687L31.8287 61.0123ZM33.2389 61.7815H33.3671L33.2389 61.9097V61.7815ZM33.3671 61.7815L36.5722 63.5763L36.444 63.8327L33.1107 62.0379L33.3671 61.7815ZM36.444 63.8327L36.5722 63.7045L36.444 63.8327ZM36.5722 63.5763L38.4952 64.3455L38.367 64.6019L36.444 63.8327L36.5722 63.5763ZM38.367 64.6019V64.4737V64.6019ZM38.367 64.3455L43.1105 64.4737L42.9823 64.7301L38.367 64.6019V64.3455ZM43.1105 64.7301H42.9823L43.1105 64.6019V64.7301ZM43.1105 64.4737L48.1104 64.3455V64.6019L43.1105 64.7301V64.4737ZM48.1104 64.6019V64.4737V64.6019ZM47.9822 64.3455L50.5481 63.3199V63.5763L48.1104 64.6019L47.9822 64.3455ZM50.5481 63.5763V63.4481V63.5763ZM50.4181 63.3199L53.2403 61.9097L53.3667 62.1661L50.5481 63.5763L50.4181 63.3199ZM53.2403 61.9097L53.3667 62.0379L53.2403 61.9097ZM53.2403 61.9097L54.6506 61.2687V61.5251L53.3667 62.1661L53.2403 61.9097ZM54.6506 61.2687V61.3969V61.2687ZM54.6506 61.2687L56.7018 61.0123L56.83 61.2687L54.6506 61.5251V61.2687ZM56.7018 61.0123H56.83V61.1405L56.7018 61.0123ZM56.83 61.0123L58.6249 61.1405L58.4966 61.5251L56.7018 61.2687L56.83 61.0123ZM58.6249 61.1405V61.2687V61.1405ZM58.6249 61.1405L60.6761 61.9097L60.5479 62.1661L58.4966 61.5251L58.6249 61.1405ZM60.6761 61.9097V62.0379V61.9097ZM60.6761 61.9097L62.4709 62.9353L62.3427 63.1917L60.5479 62.1661L60.6761 61.9097ZM62.3427 63.1917L62.4709 63.0635L62.3427 63.1917ZM62.4709 62.9353L64.2658 63.9609L64.1376 64.2173L62.3427 63.1917L62.4709 62.9353ZM64.1376 64.2173V64.0891V64.2173ZM64.2658 63.9609L65.9324 64.6019L65.8042 64.8583L64.1376 64.2173L64.2658 63.9609ZM65.9324 64.6019L65.8042 64.7301L65.9324 64.6019ZM65.9324 64.6019L67.4708 65.3711L67.3426 65.6276L65.8042 64.8583L65.9324 64.6019ZM67.4708 65.3711L67.7272 65.4993L67.599 65.6276L67.4708 65.4993V65.3711ZM67.599 65.6276L61.1889 71.5249L61.0607 71.2685L67.3426 65.3711L67.599 65.6276ZM61.1889 71.5249V71.6531L61.0607 71.5249V71.3967L61.1889 71.5249ZM61.0607 71.5249L59.0095 70.7556L59.1377 70.4992L61.1889 71.2685L61.0607 71.5249ZM59.1377 70.4992V70.6274V70.4992ZM59.0095 70.7556L57.0864 70.371V69.9864L59.1377 70.4992L59.0095 70.7556ZM57.0864 69.9864V70.1146V69.9864ZM57.0864 70.371L54.907 70.6274V70.371L57.0864 69.9864V70.371ZM54.907 70.371V70.4992V70.371ZM54.907 70.6274L52.3429 71.6531V71.3967L54.907 70.371V70.6274ZM52.2129 71.3967H52.3429V71.5249L52.2129 71.3967ZM52.4711 71.6531L50.5481 72.6787L50.4181 72.4223L52.2129 71.3967L52.4711 71.6531ZM50.4181 72.5505V72.4223L50.5481 72.5505H50.4181ZM50.5481 72.6787L47.9822 74.6017L47.8558 74.3453L50.4181 72.5505L50.5481 72.6787ZM47.9822 74.6017V74.4735V74.6017ZM47.9822 74.6017L38.6234 74.7299V74.4735L47.9822 74.3453V74.6017ZM38.6234 74.7299H38.4952L38.6234 74.6017V74.7299ZM38.4952 74.7299L36.9568 73.4479L37.085 73.3197L38.7516 74.4735L38.4952 74.7299ZM37.085 73.1915V73.3197H36.9568L37.085 73.1915ZM36.9568 73.4479L35.0338 72.2941L35.162 72.0377L37.085 73.1915L36.9568 73.4479ZM35.0338 72.2941V72.1659V72.2941ZM35.0338 72.2941L33.1107 71.0121L33.2389 70.7556L35.162 72.0377L35.0338 72.2941ZM33.2389 70.7556L33.1107 70.8839L33.2389 70.7556ZM33.1107 71.0121L31.0595 70.2428L31.1877 69.9864L33.2389 70.7556L33.1107 71.0121ZM31.0595 69.9864H31.1877L31.0595 70.1146V69.9864ZM31.0595 70.2428H28.7519V69.9864H31.0595V70.2428ZM28.7519 69.9864V70.1146V69.9864ZM28.8801 70.2428L27.2134 70.8839V70.6274L28.7519 69.9864L28.8801 70.2428ZM27.0852 70.6274H27.2134V70.7556L27.0852 70.6274ZM27.3416 70.8839L25.675 71.7813L25.5468 71.6531L27.0852 70.6274L27.3416 70.8839ZM25.675 71.7813V71.9095L25.5468 71.7813H25.675ZM25.5468 71.7813L22.0853 69.73L22.2135 69.4736L25.675 71.6531L25.5468 71.7813ZM22.0853 69.73L22.2135 69.6018L22.0853 69.73ZM22.0853 69.73L18.3675 65.6276L18.6239 65.3711L22.2135 69.4736L22.0853 69.73ZM18.3675 65.6276L18.2393 65.3711H18.4957V65.4993L18.3675 65.6276Z" fill="#9E725F"/>
<path d="M80.7242 43.1599C80.7242 22.3911 63.9296 5.59473 43.1608 5.59473C22.3902 5.59473 5.5957 22.3911 5.5957 43.1599C5.5957 63.9305 22.3902 80.725 43.1608 80.725C63.9296 80.725 80.7242 63.9305 80.7242 43.1599ZM75.4679 43.1599C75.4679 60.9818 60.981 75.4687 43.1608 75.4687C25.3389 75.4687 10.852 60.9818 10.852 43.1599C10.852 25.3397 25.3389 10.8529 43.1608 10.8529C60.981 10.8529 75.4679 25.3397 75.4679 43.1599Z" fill="#EA312F"/>
<path d="M60.0862 20.9023L58.7199 22.8382L57.8079 24.2063L56.4398 25.4609L54.8446 26.6L52.9069 27.8527L51.3117 29.1073L48.1213 31.2721L45.158 33.6658L44.2459 34.805L43.6763 35.4899L43.4474 36.7427L42.9932 37.8818L43.2203 46.6582L43.4474 47.4549L44.1323 45.7461L46.8667 43.1235L50.2861 40.7316L53.7054 38.2243L57.1229 35.4899L58.8335 34.1218L59.5166 32.5266L60.0862 20.9023Z" fill="#18AD4B"/>
<path d="M24.6419 21.4707L26.2371 23.2948L28.2883 25.2307L30.226 27.0548L32.3926 28.9925L34.671 30.7013L38.6599 33.6646L40.2551 35.1462L40.9401 36.2854V37.54L40.2551 47.3401L39.1159 46.1991L37.9768 44.2633L35.8101 42.4391L32.7333 40.2743L30.3414 38.5637L27.7206 36.5125L25.7829 33.7781L24.7573 30.9284L24.5283 27.3973L24.6419 21.4707Z" fill="#18AD4B"/>
<path d="M59.8115 36.6514L57.7602 38.4975L55.6394 40.2758L53.2475 41.6439L50.786 43.4205L48.3923 45.3362L46.4088 46.8398L45.863 48.2757L45.5206 49.6438L45.7934 51.6254V56.4129L45.4528 58.259V59.0795L45.3154 60.1729L46.1359 60.4476L46.4088 59.2846L47.3667 57.9165L48.9381 56.2755L50.9911 54.6345L52.7677 53.1986L55.3665 51.4899L56.8701 50.1218L58.3078 48.9588L59.1283 47.25L59.6063 45.8819L59.7419 45.2666L59.8115 36.6514Z" fill="#18AD4B"/>
<path d="M39.9835 63.2497L46.0677 63.1819V61.9512L46.1372 60.4476L45.3168 60.1728L44.3589 59.215L44.0182 57.574L43.8809 54.7023V52.5155L43.9487 49.7793L43.7435 48.413L43.4468 47.4552L43.1978 46.4295L43.0604 41.5743L42.8553 38.0195L41.967 38.4297L40.9414 36.6514L40.2564 47.3416L39.5055 46.6347L39.3682 50.054L39.5055 56.0704L39.6411 59.0795L39.9835 60.8578L40.0513 61.8138L39.9835 63.2497Z" fill="#8AC641"/>
<path d="M30.4512 39.6224L31.5024 40.5839L30.4768 39.1133L30.4512 39.6224Z" fill="#00A262"/>
<path d="M36.3945 44.0357L37.3762 44.8781L37.693 44.5833L36.3945 43.4551V44.0357Z" fill="#00A262"/>
<path d="M44.5283 59.1484L44.9734 59.5257L45.3506 59.0806L45.7938 56.414L45.521 54.9434L45.2133 55.8664L45.2462 56.9598L45.0668 57.8279L45.0082 58.6008L44.9404 58.9433L44.5283 59.1484Z" fill="#00A262"/>
<path d="M47.2459 59.494L47.9821 58.3273L50.2385 55.9684L51.9472 54.908L53.5278 53.5966L53.5204 53.1992L51.504 54.6021L49.5553 56.1058L48.3923 57.2339L47.6396 58.0196L46.9913 58.7724L46.6836 59.5581L47.2459 59.494Z" fill="#00A262"/>
<path d="M59.88 47.6266L60.2902 46.6339L60.5796 45.9032L60.3598 44.3428L59.5723 47.4544L59.88 47.6266Z" fill="#00A262"/>
<path d="M59.809 34.2377L60.4939 33.3696L60.7338 29.6425L61.1789 20.1043L61.2796 18.293L59.6386 19.8992L59.4683 20.2068L59.2961 20.5182L58.3401 22.0182L57.7595 22.8057L57.2449 23.7233L57.1094 24.6518L58.8529 22.498L59.5709 21.4046L60.0837 20.9028L60.2888 20.6171L59.8456 30.0528L59.6057 31.7963L59.4683 32.7542L59.809 34.2377Z" fill="#00A262"/>
<path d="M59.6044 35.7959L57.0055 38.1548L54.0312 40.5485V40.7885L60.0146 36.1384L59.6044 35.7959Z" fill="#00A262"/>
<path d="M59.2968 34.8777L57.9305 35.9326L54.2053 38.874L47.7091 43.6248L46.1359 45.1302L45.5205 45.5734L48.5626 42.4636L53.0423 39.2146L59.4012 34.2568L59.2968 34.8777Z" fill="#00A262"/>
<path d="M43.0161 35.1338L42.7871 36.6154L42.2047 37.7107L42.0674 38.1539L42.6828 37.8132L43.4025 35.5221L43.0161 35.1338Z" fill="#00A262"/>
<path d="M24.6307 19.7949L25.3834 20.8205L27.7076 23.4872L27.4347 23.7271L24.29 20.24L24.6307 19.7949Z" fill="#00A262"/>
<path d="M40.9388 36.6514L40.2538 46.131L39.5029 46.6347L40.3399 47.4973L41.1091 46.6438L40.9388 36.6514Z" fill="#8AC641"/>
<path d="M38.8878 41.8154L40.2559 46.1322L39.4446 48.0113L39.2303 46.5589L37.9482 44.3795L38.8878 41.8154Z" fill="#18AD4B"/>
</g>
<rect x="2.95592" y="2.96275" width="80.4008" height="80.4008" rx="40.2004" stroke="#18AD4B" stroke-width="5.1384"/>
<defs>
<clipPath id="clip0_8639_114211">
<rect x="0.386719" y="0.393555" width="85.5392" height="85.5392" rx="42.7696" fill="white"/>
</clipPath>
</defs>
</svg>
