<svg width="87" height="86" viewBox="0 0 87 86" fill="none" xmlns="http://www.w3.org/2000/svg">
<g clip-path="url(#clip0_8639_114261)">
<path fill-rule="evenodd" clip-rule="evenodd" d="M0.967773 0.395508H86.3997V85.8274H0.967773V0.395508Z" fill="white"/>
<path fill-rule="evenodd" clip-rule="evenodd" d="M79.1909 43.1112C79.1909 62.7197 63.2942 78.6215 43.677 78.6215C24.0703 78.6215 8.17188 62.7197 8.17188 43.1112C8.17188 23.4992 24.0703 7.60254 43.677 7.60254C63.2942 7.60254 79.1909 23.4992 79.1909 43.1112Z" fill="#044FA3"/>
<path fill-rule="evenodd" clip-rule="evenodd" d="M68.4035 30.7304C68.4035 30.7304 70.1677 30.6023 68.2269 28.6131C68.2269 28.6131 64.9998 25.1159 58.8088 22.467C55.4899 21.0473 51.759 21.6394 52.1087 25.0709C52.3528 27.4825 49.9238 28.4036 48.0108 28.182C45.7653 27.9223 44.4149 26.2222 44.7715 24.8215C45.1507 23.3274 46.0025 22.1692 47.2646 21.2707C48.1181 20.6595 48.7154 20.2302 50.2735 19.9307C51.2206 19.7489 52.4619 19.4667 52.7943 20.4604C53.4453 20.1436 54.5983 18.1474 50.8518 18.1111C50.8518 18.1111 50.2909 16.991 49.0305 17.2247C49.0305 17.2247 45.3013 13.8452 41.1566 18.0297C41.1566 18.0297 39.5292 18.6236 39.4392 18.0505C39.8097 18.3206 40.4104 17.5017 39.5881 17.2195C39.202 17.0862 38.7536 17.4601 38.6826 17.8237C38.6272 18.1042 38.7155 18.7222 39.5379 18.84C39.7543 18.8711 40.1455 18.84 40.1455 18.84L39.872 19.136C38.6341 19.6277 37.4292 19.2468 37.2041 18.4314C37.4949 18.5872 37.81 18.3933 37.9122 18.0938C38.0143 17.7908 37.7754 17.3701 37.2941 17.306C36.6224 17.2126 36.3038 17.938 36.4475 18.5751C36.6674 19.5533 37.7356 20.251 39.0998 20.083L38.8627 20.412C38.8627 20.412 37.4949 21.9978 36.3765 23.8001C35.2408 25.6301 30.6096 27.6487 31.4026 23.2894C31.6553 21.9026 29.1536 20.2406 24.8098 23.0054C22.4899 24.4839 19.6402 26.6983 17.5315 30.2855C17.5315 30.2855 16.5828 31.6567 18.1409 31.6999C18.1409 31.6999 14.5762 35.2439 14.9987 39.4647C14.9987 39.4647 15.3155 40.6247 16.1603 39.8872C16.1603 39.8872 14.7892 43.5783 15.6323 46.7431C15.6323 46.7431 16.0547 48.5367 17.1091 47.5879C17.1091 47.5879 18.0544 52.0667 20.0627 55.815C21.645 58.7703 24.5986 63.095 23.4387 64.1511C22.2891 65.1951 20.6651 63.1158 20.9196 63.9537C21.4563 65.7266 23.4248 65.9863 24.493 65.2055C27.2371 63.2024 23.1963 58.3721 21.9619 52.2295C21.9619 52.2295 22.805 52.1239 22.4622 50.1312C22.4622 50.1312 24.493 50.8583 24.1364 46.8694C24.1364 46.8694 26.2866 48.0104 26.2866 45.2663C26.2866 45.2663 28.5009 45.7943 28.9234 42.8407C28.9234 42.8407 32.5383 43.3653 33.3537 41.3622C33.3537 41.3622 34.3042 42.5239 36.0822 40.6645C36.5237 41.9335 37.4222 43.0779 38.5995 44.0474C38.5995 44.0474 38.3658 45.8307 36.2467 46.4487C36.2467 46.4487 33.6602 45.4307 30.8641 46.4487C28.288 47.3836 29.3233 49.9511 31.1948 49.3365C30.6269 49.0543 30.4625 48.206 31.3783 48.0225C32.2924 48.7184 33.281 48.3151 33.7571 47.6935C33.7571 47.6935 35.5905 48.9747 36.7972 47.6572C37.3841 47.6935 37.7477 48.5159 36.9427 48.9002C38.506 49.2153 39.0687 47.6935 38.4229 46.8694C38.4229 46.8694 38.7882 46.6478 39.202 46.3275C39.202 46.3275 39.6919 45.8861 40.0572 45.3701C40.0572 45.3701 41.5964 46.4955 44.446 47.1274C44.446 47.1274 42.9571 49.4127 40.7532 49.8542C40.7532 49.8542 37.6248 48.9089 35.5144 50.1312C35.5144 50.1312 34.3769 50.6817 34.5535 51.8469C34.6851 52.7229 35.4364 53.3323 36.5687 53.1904C36.1082 52.9809 35.0937 51.9196 36.3835 51.4643C37.237 52.7108 39.5032 51.8122 39.7456 51.4556C40.1784 51.8954 42.0776 51.717 42.3304 51.0591C42.9364 50.9587 43.8228 51.2375 43.4938 52.3247C44.2279 52.2243 45.4173 50.9847 43.6704 49.9979C43.6704 49.9979 44.7075 49.5252 45.5385 48.8344L46.7989 47.6624C46.7989 47.6624 48.3068 47.091 48.2808 48.8223C49.4598 48.6838 50.438 49.6862 50.2008 50.7873C50.2008 50.7873 49.6901 52.0477 47.8584 51.7205C46.0267 51.3915 46.0596 52.8683 47.4169 52.9549C46.5201 53.2059 45.9176 54.7987 48.9162 54.8056C48.9162 54.8056 49.5776 58.424 45.5506 58.0587C45.0728 57.9479 45.1472 57.5082 45.2026 57.1602C45.8605 56.942 45.9349 56.2824 45.6233 55.9708C45.2892 55.6367 44.5551 55.4687 43.9942 56.0608C43.6479 56.4279 43.5215 57.1429 43.6289 57.8596C42.971 57.6813 42.6195 57.4043 42.6195 56.8849C43.3882 56.556 42.8394 55.1831 41.5773 55.6782C41.0648 55.8773 40.6892 56.4902 40.9177 57.4891C41.2259 58.8343 43.0662 59.4195 44.5395 59.5874C45.419 60.3631 46.7573 61.1854 49.884 60.7145C49.884 60.7145 48.4972 67.4353 39.2886 67.141C39.2886 67.141 35.71 65.8685 36.7972 63.095C37.0136 62.5427 37.7598 61.5767 38.5095 61.5975C38.5095 61.5975 39.7647 62.0095 39.7647 60.95C39.7647 60.95 39.6642 60.1795 38.8627 60.0982C38.0611 60.0168 36.1376 60.183 35.2581 62.5999C34.8651 63.6854 34.9482 65.46 36.0234 66.6857C32.5417 65.8322 29.9206 63.3893 30.9749 60.0722C31.5445 58.2838 34.1051 56.556 36.1376 57.7644C36.0839 58.5885 36.4683 59.2498 37.4015 59.2498C38.1875 59.2498 38.6099 58.5348 38.4454 57.6553C38.2983 56.8693 37.1781 55.7821 35.2581 55.6782C33.2273 55.5674 29.4445 56.7135 29.1623 60.95C28.9009 64.8748 31.5826 67.7037 38.2481 68.5797L38.3346 68.6524C38.3346 68.6524 42.3893 71.2996 48.1233 69.8868C48.1233 69.8868 59.6744 67.6812 57.2039 55.512C57.2039 55.512 60.0293 47.562 53.9231 42.9446C53.9231 42.9446 53.7829 41.8106 54.6623 42.7351C55.1852 43.4294 57.2991 43.7895 57.2991 42.3127C57.2991 42.3127 59.3039 44.1063 60.0276 42.2833C60.0276 42.2833 60.779 44.4231 62.3181 42.9879C62.3181 42.9879 61.9389 44.6326 62.6782 45.5831C63.4174 46.5318 64.7886 46.2514 64.7886 46.2514C64.7886 46.2514 62.6782 51.9127 65.2093 52.1239C65.2093 52.1239 58.8815 64.7848 62.5466 66.3862C63.8191 66.9419 65.3045 66.6701 66.0611 65.176C66.6861 63.9399 64.683 66.3654 63.523 65.3111C62.1415 64.0559 63.8399 60.9863 65.5261 57.8215C67.8495 53.4639 69.4319 50.2576 69.747 48.116C69.747 48.116 71.1286 49.0232 71.551 45.7528C71.8886 43.1368 71.4887 41.3155 71.2221 39.4647C71.2221 39.4647 73.0157 40.6247 72.1362 36.5233C72.1362 36.5233 71.4904 33.5524 68.4035 30.7304ZM46.07 17.545C46.1981 17.5623 46.3193 17.5952 46.4336 17.6385C46.4561 17.6765 46.4682 17.7198 46.4682 17.7666C46.4682 17.912 46.3522 18.0297 46.2068 18.0297C46.0631 18.0297 45.9453 17.912 45.9453 17.7666C45.9453 17.6731 45.9955 17.5917 46.07 17.545ZM45.5887 17.5675C45.5887 17.5744 45.5852 17.5813 45.5852 17.5882C45.5437 17.9414 45.7947 18.26 46.1479 18.3015C46.4595 18.3379 46.7469 18.144 46.8352 17.8514C47.0135 17.9709 47.1659 18.1024 47.2853 18.208C46.6032 18.2167 46.4907 18.537 45.9038 18.4262C45.606 18.3708 45.2892 18.0592 45.2719 17.6696C45.3948 17.6125 45.4363 17.5986 45.5887 17.5675ZM54.8285 58.2751C54.8285 58.2751 55.1644 57.7211 55.3427 58.5158C55.3427 58.5158 55.6977 62.792 52.9657 65.4063C51.1444 67.148 46.946 69.6393 42.1833 68.552C42.1833 68.552 49.7836 68.0655 51.7244 61.0989L51.939 60.3146C51.939 60.3146 53.8538 59.8748 54.8285 58.2751Z" fill="white"/>
<path fill-rule="evenodd" clip-rule="evenodd" d="M0.967773 43.1115C0.967773 19.5201 20.0924 0.395508 43.6837 0.395508C67.2751 0.395508 86.3997 19.5201 86.3997 43.1115C86.3997 66.7028 67.2751 85.8274 43.6837 85.8274C20.0924 85.8274 0.967773 66.7028 0.967773 43.1115Z" fill="#1EA0DA"/>
<path fill-rule="evenodd" clip-rule="evenodd" d="M79.1899 43.1102C79.1899 62.7187 63.2932 78.6205 43.6761 78.6205C24.0693 78.6205 8.1709 62.7187 8.1709 43.1102C8.1709 23.4982 24.0693 7.60156 43.6761 7.60156C63.2932 7.60156 79.1899 23.4982 79.1899 43.1102Z" fill="#1EA0DA"/>
<path fill-rule="evenodd" clip-rule="evenodd" d="M70.2912 32.8307C69.6597 31.9676 69.0016 29.4172 68.2592 28.6474C68.2514 28.6393 68.2218 28.6086 68.2141 28.6004C68.0047 28.3779 64.7898 25.0259 58.8068 22.466C55.4879 21.0464 51.757 21.6385 52.1067 25.0699C52.3509 27.4816 49.9219 28.4026 48.0088 28.181C45.7633 27.9213 44.4129 26.2212 44.7696 24.8206C45.1487 23.3265 46.0005 22.1682 47.2626 21.2697C48.1161 20.6586 48.7134 20.2292 50.2716 19.9297C51.7507 19.6458 53.9805 18.8191 52.5533 18.3381C52.4051 18.2881 52.2359 18.2449 52.0436 18.2099C51.3194 18.0782 50.9079 17.9355 50.3132 17.5018C49.8184 17.141 48.7631 16.9749 48.2305 16.6727C46.9333 15.9367 44.2143 15.0344 41.2691 17.915C41.1947 17.9877 41.1041 18.0475 41.005 18.0794C40.9445 18.0989 40.8687 18.1223 40.7833 18.1465C40.26 18.2945 40.1005 17.395 39.5861 17.2185C39.2 17.0852 38.7516 17.4592 38.6806 17.8227C38.6252 18.1032 38.7135 18.7213 39.5359 18.839C39.6038 18.8488 39.6889 18.8524 39.7737 18.8528C39.9055 18.8534 39.9818 19.0141 39.8924 19.1109C39.8777 19.1268 39.8594 19.1393 39.8392 19.1471C39.0435 19.454 38.2646 19.4015 37.7545 19.1062C37.4625 18.9371 37.8013 18.4122 37.9102 18.0928C38.0124 17.7898 37.7735 17.3691 37.2922 17.3051C36.6204 17.2116 36.3019 17.937 36.4456 18.5741C36.6436 19.4551 37.5299 20.1086 38.7008 20.107C38.8524 20.1068 38.9538 20.2818 38.8651 20.4049C38.8622 20.4089 38.8593 20.4126 38.8561 20.4164C38.7684 20.5186 37.4551 22.0578 36.3746 23.7991C35.2389 25.6291 30.6077 27.6478 31.4006 23.2884C31.6534 21.9016 29.1517 20.2396 24.8079 23.0045C22.494 24.4791 19.6532 26.6857 17.5461 30.2564C17.5351 30.275 17.5411 30.2676 17.5289 30.2855C17.0936 30.9231 17.2932 32.6555 16.8584 33.2935C15.8879 34.7176 14.7578 36.9565 14.9935 39.4309C14.9956 39.4526 14.9912 39.4442 14.9971 39.4652C15.1078 39.8566 15.8256 40.9726 15.7341 41.3689C15.4195 42.7311 15.1239 44.8214 15.6257 46.7245C15.6288 46.7362 15.6276 46.7306 15.6304 46.7424C15.8542 47.6804 17.3813 48.7617 17.6497 49.6879C18.1265 51.3331 18.9231 53.6908 20.0607 55.814C21.6431 58.7693 24.5967 63.094 23.4367 64.1501C22.2871 65.1941 20.6632 63.1148 20.9177 63.9528C21.4544 65.7256 23.4229 65.9853 24.4911 65.2045C27.1029 63.2979 23.568 58.8301 22.1569 53.1072C22.0405 52.6354 21.8755 52.4217 22.22 52.079C22.6737 51.6276 23.3503 50.2204 23.7269 49.7029C23.8627 49.5164 23.9806 49.2607 24.0616 48.9124C24.2615 48.0522 24.6852 47.3511 25.5055 47.0242C26.1733 46.7582 27.0187 45.4035 27.6525 45.0643C27.8772 44.9441 28.1013 44.7663 28.3001 44.5064C28.9025 43.7186 29.7272 42.9638 30.7139 42.8645C31.2261 42.8129 31.7735 42.6991 32.2472 42.4712C32.8985 42.158 33.3509 41.6332 34.0693 41.712C34.7771 41.7897 36.3826 41.4586 36.7724 42.0545C37.062 42.4973 37.4077 42.9193 37.7996 43.318C38.271 43.7974 38.558 44.4751 38.1984 45.0432C38.0284 45.3117 37.7884 45.5986 37.4509 45.8549C36.7535 46.3844 35.8015 46.2596 34.9378 46.1155C33.921 45.9458 32.4243 45.879 30.8622 46.4478C29.1277 47.0772 29.0303 48.4467 29.723 49.0868C30.1445 49.4764 30.5329 48.4496 31.0235 48.1516C31.181 48.0559 31.4576 48.0912 31.6189 48.1802C31.7979 48.2791 31.9778 48.3394 32.1542 48.3678C33.1605 48.5294 34.4449 48.2602 35.4641 48.2512C35.8523 48.2478 36.2568 48.1371 36.6192 47.8269C36.7367 47.7263 36.8814 47.6489 37.0222 47.7126C37.4702 47.915 38.0257 48.8889 38.355 48.5239C38.5561 48.3009 38.6668 48.0127 38.682 47.7199C38.7072 47.2367 38.7756 46.6513 39.16 46.3574C39.1761 46.3451 39.2075 46.3198 39.2224 46.306C39.2258 46.3029 39.2295 46.2994 39.2336 46.2956C39.7319 45.8302 40.5174 45.6843 41.1292 45.9855C41.323 46.0809 41.5424 46.1823 41.7867 46.2858C43.0298 46.8124 43.6026 48.3344 42.4861 49.0933C42.1618 49.3137 41.804 49.5116 41.4178 49.6591C40.9917 49.8219 40.5238 49.7813 40.0763 49.6932C39.1779 49.5164 37.5398 49.3198 36.1395 49.8373C35.7064 49.9973 35.2797 50.2121 34.9659 50.5509C34.7036 50.8342 34.4632 51.2632 34.5515 51.8459C34.5907 52.1066 34.6847 52.3437 34.8274 52.5444C35.15 52.9983 35.5239 52.1723 35.8947 51.7568C36.0613 51.5702 36.4732 51.6181 36.671 51.7713C37.027 52.0471 37.4961 52.1252 37.961 52.0972C38.9575 52.037 40.6539 51.8535 41.6086 51.5616C41.7181 51.5281 41.821 51.4885 41.9133 51.443C42.2351 51.2843 42.5555 50.992 42.9033 51.0803C42.9478 51.0916 42.9916 51.1053 43.034 51.1216C43.6622 51.3635 44.1082 52.2279 44.4398 51.6421C44.8118 50.985 44.6195 49.5216 45.2279 49.0743C45.3323 48.9975 45.4359 48.9171 45.5365 48.8335L46.5467 47.894C46.7119 47.7404 46.6672 47.6946 46.8844 47.6336C47.8992 47.3487 49.428 48.7257 49.99 49.6175C50.1638 49.8933 50.2548 50.2193 50.2308 50.5624C50.2203 50.7126 50.1722 50.8582 50.0874 50.9827C49.8554 51.323 49.2242 51.9638 47.8564 51.7195C47.2859 51.6171 47.501 54.6733 48.0752 54.7521C48.1869 54.7674 48.3064 54.7796 48.4341 54.7884C48.7111 54.8075 48.949 55.003 48.954 55.2806C48.9717 56.25 48.6556 58.3396 45.5486 58.0577C44.8933 57.9058 45.8672 57.0116 45.7947 56.3429C45.7793 56.2005 45.7194 56.0679 45.6214 55.9698C45.2872 55.6357 44.5532 55.4677 43.9922 56.0598C43.825 56.2371 43.7091 56.4954 43.646 56.7959C43.5425 57.2887 42.9504 57.7349 42.712 57.2912C42.5798 57.0452 42.834 56.827 42.9331 56.5658C43.1245 56.061 42.5726 55.286 41.5754 55.6772C41.0629 55.8763 40.6872 56.4892 40.9157 57.4882C41.1563 58.5383 42.3307 59.1253 43.5352 59.4121C44.1799 59.5657 44.5185 59.6257 45.0642 60.0016C46.9195 61.2796 49.1364 63.0912 47.4683 64.6052C46.0761 65.8688 43.919 66.9873 40.6094 67.1333C39.7369 67.1718 38.8453 67.0202 38.1215 66.5316C37.1889 65.9021 36.1371 64.7731 36.7953 63.094C36.9063 62.8108 37.1566 62.4187 37.4753 62.1067C38.0354 61.5585 38.8126 61.9771 39.4787 61.5643C39.7766 61.3797 39.7677 60.7496 39.5555 60.4708C39.4225 60.2961 39.207 60.1324 38.8607 60.0972C38.0591 60.0158 36.1357 60.182 35.2562 62.5989C34.8008 63.8567 33.1658 65.6514 32.1982 64.7277C30.9549 63.5406 30.3772 61.9455 30.973 60.0712C31.3485 58.8922 32.5893 57.7396 33.9736 57.4371C35.3166 57.1437 36.0248 59.2489 37.3995 59.2489C38.1855 59.2489 38.6079 58.5338 38.4435 57.6544C38.2963 56.8684 37.1762 55.7811 35.2562 55.6772C33.2254 55.5664 29.4425 56.7125 29.1603 60.949C28.9001 64.8553 31.5554 67.676 38.1518 68.5662C38.2125 68.5744 38.271 68.5997 38.3179 68.639C38.3277 68.6473 38.3368 68.6542 38.3477 68.661C38.593 68.8157 41.8222 70.7817 46.488 70.1903C47.5867 70.0511 48.6688 69.7975 49.7091 69.4176C52.087 68.5491 56.3975 66.2712 57.3561 60.9806C57.9975 57.4405 58.1304 53.664 57.8018 50.0813C57.6134 48.027 56.8786 45.7253 54.9324 43.8143C54.3238 43.2166 54.0725 42.1162 54.6604 42.7342C54.9535 43.1233 55.7464 43.4075 56.3868 43.322C56.9648 43.2448 58.0365 42.9009 58.6009 43.0477C58.7486 43.0861 58.8988 43.1063 59.0456 43.0986C59.5136 43.0742 60.174 42.7113 60.4854 43.0615C60.8176 43.435 62.1866 44.1418 62.278 44.6332C62.3406 44.9699 62.461 45.3054 62.6762 45.5821C63.2978 46.3799 64.3589 47.4932 64.1575 48.4843C64.0713 48.9084 64.0028 49.3534 63.9752 49.781C63.8833 51.2022 64.5332 53.5131 63.973 54.8225C62.3423 58.6339 59.9614 65.2565 62.5447 66.3852C63.8171 66.941 65.3026 66.6691 66.0592 65.175C66.6842 63.9389 64.6811 66.3644 63.5211 65.3101C62.1395 64.0549 63.8379 60.9853 65.5242 57.8206C66.8571 55.3207 67.9461 53.1997 68.6918 51.4413C69.3289 49.9392 71.34 47.37 71.5491 45.7518C71.6604 44.8892 71.6915 44.113 71.6737 43.3936C71.6353 41.8485 72.4593 38.0415 72.1359 36.5301C72.1355 36.5285 72.1344 36.5232 72.1341 36.5216C72.1254 36.4826 71.754 34.8302 70.2912 32.8307ZM45.9541 17.6922C45.9894 17.5739 46.1359 17.5499 46.2554 17.5811C46.2718 17.5854 46.2881 17.5899 46.3043 17.5947C46.3877 17.6192 46.4662 17.6786 46.4662 17.7656C46.4662 17.911 46.3502 18.0287 46.2048 18.0287C46.0611 18.0287 45.9434 17.911 45.9434 17.7656C45.9434 17.7401 45.9471 17.7155 45.9541 17.6922ZM45.566 17.5708C45.5767 17.5685 45.5833 17.5764 45.5833 17.5873C45.5417 17.9404 45.7928 18.259 46.1459 18.3006C46.3892 18.3289 46.6177 18.217 46.7482 18.0274C46.8038 17.9466 46.9297 17.9162 47.0073 17.976C47.1128 18.0575 47.0388 18.2199 46.9087 18.2492C46.53 18.3346 46.3612 18.5119 45.9018 18.4252C45.6346 18.3755 45.3519 18.1193 45.2843 17.7857C45.2701 17.7157 45.3114 17.6471 45.3782 17.6216C45.4318 17.6012 45.4806 17.5886 45.566 17.5708ZM54.8231 58.28C54.8254 58.2761 54.8243 58.2779 54.8267 58.2741C55.12 57.794 55.3689 58.7957 55.3498 59.3579C55.3032 60.7363 54.9461 63.5083 52.9637 65.4053C51.5505 66.7567 50.5888 64.0563 51.3298 62.2468C51.478 61.8849 51.6097 61.5023 51.7224 61.0979C51.8546 60.6149 52.2447 60.2457 52.7028 60.0436C53.345 59.7603 54.2469 59.2217 54.8231 58.28Z" fill="white"/>
</g>
<defs>
<clipPath id="clip0_8639_114261">
<rect x="0.967773" y="0.393555" width="85.5392" height="85.5392" rx="42.7696" fill="white"/>
</clipPath>
</defs>
</svg>
