<svg width="87" height="86" viewBox="0 0 87 86" fill="none" xmlns="http://www.w3.org/2000/svg">
<rect x="0.492188" y="0.393555" width="85.5392" height="85.5392" rx="42.7696" fill="#5C2482"/>
<path d="M17.3855 60.9571C21.6851 62.9561 25.9687 64.9908 30.2636 67.003C30.4891 67.1092 30.7662 67.1467 31.0189 67.1477C34.2814 67.1571 37.5449 67.142 40.8074 67.1655C41.3532 67.1702 41.4837 66.9908 41.48 66.4722C41.4584 63.6127 41.4706 60.7523 41.4678 57.8918C41.4678 57.7396 41.4415 57.5875 41.4199 57.3526C41.1644 57.47 40.9718 57.564 40.7754 57.6476C37.7684 58.9355 34.7192 60.0214 31.359 59.5912C30.0532 59.4249 28.8733 58.9618 27.9086 58.0356C26.2252 56.4179 25.7076 54.3118 25.6681 52.1117C25.6362 50.2762 25.8043 48.4256 26.0242 46.5994C26.2834 44.4444 26.8302 42.3467 27.7489 40.3627C30.2505 34.9575 33.8399 30.3375 38.1311 26.2643C39.5486 24.9182 41.2254 23.8445 42.7829 22.6439C43.1671 22.3471 43.5373 22.3414 43.9327 22.6345C45.1746 23.5551 46.4917 24.3865 47.6565 25.3945C50.6832 28.0144 53.2572 31.0543 55.5296 34.3412C57.8038 37.631 59.7296 41.0955 60.4623 45.1001C60.9968 48.0263 61.4336 50.961 60.87 53.9332C60.1119 57.9303 57.7653 59.6081 54.1468 59.7077C52.3694 59.7556 50.6381 59.3686 48.9604 58.7955C47.7523 58.3831 46.5687 57.8956 45.3052 57.4165C45.2967 57.5893 45.2864 57.7077 45.2864 57.8261C45.2855 60.6865 45.3061 63.547 45.2695 66.4065C45.261 67.049 45.4771 67.1712 46.0633 67.1665C49.2253 67.1402 52.3873 67.1636 55.5502 67.142C55.9551 67.1392 56.3919 67.0368 56.7602 66.8649C60.9113 64.9288 65.0522 62.9692 69.1968 61.0172C70.0385 60.6208 70.0357 60.6236 69.8074 59.7302C67.4955 50.6867 65.1884 41.6422 62.8653 32.6015C62.7854 32.2905 62.6145 31.958 62.3871 31.7372C61.4477 30.8298 60.4708 29.959 59.5041 29.0788C57.6742 27.4132 55.8443 25.7477 54.0106 24.0868C51.5653 21.8736 49.1154 19.6651 46.6701 17.4519C45.6997 16.5754 44.7294 15.698 43.7712 14.8094C43.4527 14.5135 43.2188 14.5285 42.9144 14.8498C42.5143 15.2725 42.0568 15.6398 41.6256 16.0325C39.7083 17.7807 37.7957 19.5336 35.8746 21.278C33.8343 23.1305 31.7892 24.9774 29.7432 26.8223C28.2496 28.1694 26.7343 29.493 25.2614 30.8608C24.6714 31.4075 24.0054 31.8734 23.7799 32.7696C21.5019 41.801 19.1948 50.8248 16.8735 59.8448C16.7242 60.4263 16.8322 60.6987 17.3855 60.9571Z" fill="#F7A723"/>
</svg>
