<svg width="121" height="120" viewBox="0 0 121 120" fill="none" xmlns="http://www.w3.org/2000/svg">
<path d="M54.7649 52.0457L54.7704 52.0554L54.7764 52.0647C55.7067 53.4931 56.9517 54.497 58.5057 55.0648L58.5086 55.0658L58.5117 55.0669L58.5147 55.068L58.5209 55.0702L58.527 55.0723L58.533 55.0745L58.5571 55.0831L58.5808 55.0915L58.6041 55.0998L58.6231 55.1065C58.6144 56.4443 58.6115 57.4886 58.6144 58.2388C58.6175 59.0196 58.6266 59.5097 58.6459 59.6672C58.7685 60.6654 59.2092 61.4051 60.0084 61.7954L60.0124 61.7973C60.3871 61.9742 60.7814 62.0395 61.1882 61.9896L61.1932 61.9889C61.7975 61.9058 62.2936 61.655 62.6445 61.2168C62.9899 60.7855 63.1658 60.2088 63.2076 59.524L63.2082 59.5139L63.2082 59.5038C63.2085 59.3792 63.2114 58.9556 63.2168 58.2312L63.2168 58.2312L63.2168 58.2279C63.2143 56.903 63.2222 55.7739 63.2405 54.8404C64.7931 54.105 65.9257 52.9613 66.6243 51.4161L66.6249 51.4148C67.1186 50.3109 67.2948 49.1663 67.15 47.9875C66.862 45.6413 65.3846 43.8763 62.8217 42.6828L62.8205 42.6823C62.4647 42.5181 62.02 42.3265 61.4876 42.1075L61.4876 42.1074L61.4811 42.1049C60.3683 41.6733 59.8611 41.1745 59.7413 40.675L59.7392 40.6663L59.7367 40.6577C59.7127 40.5766 59.7009 40.52 59.6965 40.4839C59.6157 39.8259 59.8218 39.3055 60.3303 38.8826C60.5928 38.6665 60.8885 38.5393 61.2241 38.4974C61.8016 38.4404 62.3839 38.6757 62.9824 39.2982L62.991 39.3072L63.0002 39.3155C63.4315 39.7037 63.9623 39.8641 64.562 39.8089L64.562 39.809L64.5724 39.8078C65.3361 39.714 65.883 39.2838 66.1833 38.5617L66.1834 38.5618L66.187 38.5523C66.3127 38.2231 66.3579 37.887 66.3164 37.5487C66.3059 37.4634 66.2635 37.3385 66.2199 37.2179C66.1702 37.0805 66.0994 36.8979 66.0083 36.6717L65.9865 36.6177L65.9482 36.5738C65.2299 35.7514 64.3512 35.1492 63.3175 34.7683L63.3788 30.5519L63.3791 30.5283L63.3763 30.5049C63.2743 29.6744 62.8311 29.0664 62.0721 28.7188L62.0721 28.7187L62.0686 28.7172C61.6855 28.5469 61.2939 28.4799 60.9 28.5282C60.4665 28.5814 60.0848 28.73 59.7699 28.985C59.4556 29.2396 59.2267 29.585 59.0741 30.0027L59.0741 30.0027L59.0731 30.0056C58.9669 30.3044 58.9135 30.6091 58.915 30.9178L58.915 30.9178L58.9151 30.922C58.9252 31.51 58.9139 32.3697 58.8805 33.5042L58.8804 33.5042L58.8804 33.5076C58.8679 34.1417 58.8596 34.6386 58.8555 34.9978C57.4816 35.6834 56.5103 36.7497 55.955 38.1856L55.955 38.1856L55.9535 38.1895C55.6151 39.0975 55.5038 40.0306 55.6209 40.9843L55.6212 40.9868C55.9177 43.2631 57.547 44.8712 60.3372 45.8509C60.8666 46.0865 61.2933 46.2951 61.6201 46.4768C61.9523 46.6614 62.1608 46.8073 62.2706 46.9135C62.595 47.2491 62.8207 47.7658 62.9118 48.5079C63.018 49.3722 62.7584 50.0752 62.1233 50.6532C61.7076 51.0095 61.229 51.2204 60.6792 51.2885C59.969 51.3616 59.1006 50.9247 58.0614 49.7552L58.0616 49.7551L58.0523 49.7453C57.5128 49.1841 56.8921 48.896 56.2024 48.9613L56.2024 48.9611L56.1929 48.9623C55.81 49.0093 55.4706 49.135 55.1904 49.3525C54.9102 49.5701 54.7084 49.8646 54.5776 50.2193C54.4627 50.5188 54.4245 50.8303 54.4636 51.1488C54.5018 51.4603 54.6039 51.7598 54.7649 52.0457Z" fill="#615DE7" stroke="#615DE7" stroke-width="0.688863"/>
<path d="M21.4792 94.7575L34.1985 101.306L29.0352 89.7201V56.4739L21.4792 50.0513V94.7575Z" fill="#D9D8F8"/>
<path d="M18.7087 87.6563V55.484C18.7087 51.2511 23.9325 49.1161 26.9546 52.0798C37.2045 62.1316 54.0593 77.6029 59.8888 76.7491C65.8083 75.882 83.574 60.5693 94.0683 51.1131C97.1232 48.3603 102.076 50.5198 102.076 54.6321V87.6562C102.076 95.6816 95.5704 102.188 87.545 102.188H33.24C25.2146 102.188 18.7087 95.6816 18.7087 87.6563Z" stroke="#2F3378" stroke-width="7.5" stroke-linecap="round" stroke-linejoin="round"/>
<path d="M24.7534 38.7173V31.875C24.7534 24.1085 31.0494 17.8125 38.8159 17.8125H82.2208C89.9873 17.8125 96.2833 24.1085 96.2833 31.875V38.7173" stroke="#615DE7" stroke-width="7.5" stroke-linecap="round" stroke-linejoin="round"/>
</svg>
