<svg width="123" height="122" viewBox="0 0 123 122" fill="none" xmlns="http://www.w3.org/2000/svg">
<circle cx="61.4989" cy="61.6256" r="29.603" stroke="#2F3378" stroke-width="7.39132"/>
<path d="M44.2129 62.668C43.6172 73.2715 48.502 78.9902 61.4883 87.4492C47.2098 87.4492 35.6348 75.8742 35.6348 61.5957C35.6348 47.3172 47.2098 35.7422 61.4883 35.7422C50.4082 42.4141 44.8086 52.0645 44.2129 62.668Z" fill="#D9D8F8"/>
<path d="M102.126 57.5775C102.126 35.5055 84.2332 17.6125 62.1611 17.6125C45.4276 17.6125 32.353 24.6782 19.4729 35.4974" stroke="#615DE7" stroke-width="8.24416" stroke-linecap="round"/>
<path d="M10.1296 29.683L7.01104 39.628C6.33029 41.7988 7.60457 44.0975 9.8063 44.6705L20.8145 47.5352" stroke="#615DE7" stroke-width="7.39132" stroke-linecap="round" stroke-linejoin="round"/>
<path d="M20.1355 64.4225C20.1355 86.4945 38.0285 104.387 60.1006 104.387C76.8341 104.387 89.9087 97.3218 102.789 86.5026" stroke="#615DE7" stroke-width="8.24416" stroke-linecap="round"/>
<path d="M112.132 92.317L115.251 82.372C115.931 80.2012 114.657 77.9025 112.455 77.3295L101.447 74.4648" stroke="#615DE7" stroke-width="7.39132" stroke-linecap="round" stroke-linejoin="round"/>
<path d="M54.8747 46.464C54.8747 46.464 49.8263 55.9607 50.0227 62.4032C50.2012 68.2614 54.8747 76.7873 54.8747 76.7873" stroke="#2F3378" stroke-width="7.39132" stroke-linecap="round"/>
<path d="M68.1228 76.7873C68.1228 76.7873 73.1712 67.2906 72.9749 60.8481C72.7963 54.9899 68.1228 46.464 68.1228 46.464" stroke="#2F3378" stroke-width="7.39132" stroke-linecap="round"/>
<path d="M45.1594 62.656H77.8383" stroke="#2F3378" stroke-width="7.39132" stroke-linecap="round"/>
</svg>
