<svg width="62" height="63" viewBox="0 0 62 63" fill="none" xmlns="http://www.w3.org/2000/svg">
<path d="M28.4167 8.62695C39.835 8.62695 49.0833 13.2511 49.0833 18.9603C49.0833 24.6695 39.835 29.2936 28.4167 29.2936C16.9983 29.2936 7.75 24.6695 7.75 18.9603C7.75 13.2511 16.9983 8.62695 28.4167 8.62695ZM49.0833 31.9545C44.2008 32.497 40.2225 36.062 39.0858 40.7378C35.96 41.6678 32.2917 42.2103 28.4167 42.2103C16.9983 42.2103 7.75 37.5861 7.75 31.877V24.127C7.75 29.8361 16.9983 34.4603 28.4167 34.4603C39.835 34.4603 49.0833 29.8361 49.0833 24.127V31.9545ZM36.1667 46.6278V54.3778C33.7642 54.8686 31.155 55.127 28.4167 55.127C16.9983 55.127 7.75 50.5028 7.75 44.7936V37.0436C7.75 42.7528 16.9983 47.377 28.4167 47.377C31.155 47.377 33.7642 47.1186 36.1667 46.6278ZM50.375 37.0436C52.0879 37.0436 53.7306 37.7241 54.9417 38.9352C56.1529 40.1464 56.8333 41.7891 56.8333 43.502V44.7936C57.5185 44.7936 58.1756 45.0658 58.66 45.5503C59.1445 46.0347 59.4167 46.6918 59.4167 47.377V57.7103C59.4167 58.3954 59.1445 59.0525 58.66 59.537C58.1756 60.0215 57.5185 60.2936 56.8333 60.2936H43.9167C43.2315 60.2936 42.5744 60.0215 42.09 59.537C41.6055 59.0525 41.3333 58.3954 41.3333 57.7103V47.377C41.3333 46.6918 41.6055 46.0347 42.09 45.5503C42.5744 45.0658 43.2315 44.7936 43.9167 44.7936V43.502C43.9167 41.7891 44.5971 40.1464 45.8083 38.9352C47.0194 37.7241 48.6621 37.0436 50.375 37.0436ZM50.375 39.627C49.3473 39.627 48.3617 40.0352 47.635 40.7619C46.9083 41.4886 46.5 42.4742 46.5 43.502V44.7936H54.25V43.502C54.25 42.4742 53.8417 41.4886 53.115 40.7619C52.3883 40.0352 51.4027 39.627 50.375 39.627Z" fill="#5852E3"/>
<path d="M50.3747 37.0439C52.0875 37.0439 53.7302 37.7244 54.9414 38.9355C56.1526 40.1467 56.833 41.7894 56.833 43.5023V44.7939C57.5182 44.7939 58.1752 45.0661 58.6597 45.5506C59.1442 46.0351 59.4163 46.6921 59.4163 47.3773V57.7106C59.4163 58.3958 59.1442 59.0528 58.6597 59.5373C58.1752 60.0218 57.5182 60.2939 56.833 60.2939H43.9163C43.2312 60.2939 42.5741 60.0218 42.0896 59.5373C41.6052 59.0528 41.333 58.3958 41.333 57.7106V47.3773C41.333 46.6921 41.6052 46.0351 42.0896 45.5506C42.5741 45.0661 43.2312 44.7939 43.9163 44.7939V43.5023C43.9163 41.7894 44.5968 40.1467 45.8079 38.9355C47.0191 37.7244 48.6618 37.0439 50.3747 37.0439ZM50.3747 39.6273C49.347 39.6273 48.3613 40.0355 47.6346 40.7622C46.9079 41.4889 46.4997 42.4746 46.4997 43.5023V44.7939H54.2497V43.5023C54.2497 42.4746 53.8414 41.4889 53.1147 40.7622C52.388 40.0355 51.4024 39.6273 50.3747 39.6273Z" fill="#FF9E23"/>
</svg>
