<svg width="62" height="63" viewBox="0 0 62 63" fill="none" xmlns="http://www.w3.org/2000/svg">
<path d="M15.5003 13.7939C12.6587 13.7939 10.3337 16.1189 10.3337 18.9606V39.6273C10.3337 42.4689 12.6587 44.7939 15.5003 44.7939H28.417V49.9606H25.8337C24.2837 49.9606 23.2503 50.9939 23.2503 52.5439H5.16699V57.7106H23.2503C23.2503 59.2606 24.2837 60.2939 25.8337 60.2939H36.167C37.717 60.2939 38.7503 59.2606 38.7503 57.7106H56.8337V52.5439H38.7503C38.7503 50.9939 37.717 49.9606 36.167 49.9606H33.5837V44.7939H46.5003C49.342 44.7939 51.667 42.4689 51.667 39.6273V24.1273C51.667 21.2856 49.342 18.9606 46.5003 18.9606H31.0003L25.8337 13.7939H15.5003ZM23.2503 24.1273C26.6087 24.1273 29.4503 26.1939 30.4837 29.2939H46.5003V34.4606H41.3337V39.6273H36.167V34.4606H30.4837C29.4503 37.5606 26.6087 39.6273 23.2503 39.6273C18.8587 39.6273 15.5003 36.2689 15.5003 31.8773C15.5003 27.4856 18.8587 24.1273 23.2503 24.1273ZM23.2503 29.2939C21.7003 29.2939 20.667 30.3273 20.667 31.8773C20.667 33.4273 21.7003 34.4606 23.2503 34.4606C24.8003 34.4606 25.8337 33.4273 25.8337 31.8773C25.8337 30.3273 24.8003 29.2939 23.2503 29.2939Z" fill="#5852E3"/>
<path d="M23.25 24.127C26.6083 24.127 29.45 26.1936 30.4833 29.2936H46.5V34.4603H41.3333V39.627H36.1667V34.4603H30.4833C29.45 37.5603 26.6083 39.627 23.25 39.627C18.8583 39.627 15.5 36.2686 15.5 31.877C15.5 27.4853 18.8583 24.127 23.25 24.127ZM23.25 29.2936C21.7 29.2936 20.6667 30.327 20.6667 31.877C20.6667 33.427 21.7 34.4603 23.25 34.4603C24.8 34.4603 25.8333 33.427 25.8333 31.877C25.8333 30.327 24.8 29.2936 23.25 29.2936Z" fill="#FF9E23"/>
</svg>
