<svg width="843" height="892" viewBox="0 0 843 892" fill="none" xmlns="http://www.w3.org/2000/svg">
<g opacity="0.3">
<path d="M448.363 321.118C515.029 262.717 447.782 182.6 405.826 149.841L570.989 123.629C631.979 161.499 694.956 286.895 602.208 362.097C509.461 437.299 529.132 478.078 592.137 552.572C627.975 594.945 572.034 644.714 612.55 662.27L481.427 734.163C480.736 736.453 479.52 737.144 478.327 735.863L481.427 734.163C484.931 722.548 474.932 669.787 379.959 624.259C231.132 552.917 365.03 394.118 448.363 321.118Z" fill="#FCC09C" fill-opacity="0.8"/>
<path d="M311.246 359.501C384.043 295.732 310.609 208.246 264.792 172.474L445.147 143.855C511.747 185.208 580.52 322.137 479.243 404.252C377.967 486.368 399.448 530.896 468.251 612.242C507.386 658.512 468.886 688.42 490.268 730.312L347.377 810.477C346.626 813.019 345.288 813.793 343.976 812.385L347.377 810.477C351.158 797.69 340.127 740.165 236.558 690.516C74.0402 612.61 220.251 439.212 311.246 359.501Z" fill="#FFD7BE" fill-opacity="0.8"/>
</g>
</svg>
