<svg width="123" height="122" viewBox="0 0 123 122" fill="none" xmlns="http://www.w3.org/2000/svg">
<path d="M25.5557 23.4164C25.5557 20.4854 27.9317 18.1094 30.8627 18.1094H32.656C36.733 18.1094 38.7676 23.0452 35.8748 25.9183V25.9183C34.1018 27.6791 34.0728 30.5379 35.8098 32.3344L35.9399 32.469C38.8594 35.4885 36.7197 40.5337 32.5196 40.5337H30.9703C27.9799 40.5337 25.5557 38.1094 25.5557 35.119V23.4164Z" fill="#D9D8F8"/>
<path d="M27.6768 53.7195C27.6768 50.7885 30.0528 48.4125 32.9838 48.4125H34.777C38.8541 48.4125 40.8887 53.3484 37.9959 56.2214V56.2214C36.2228 57.9823 36.1939 60.8411 37.9309 62.6375L38.061 62.7722C40.9805 65.7916 38.8408 70.8368 34.6407 70.8368H33.0914C30.101 70.8368 27.6768 68.4126 27.6768 65.4221V53.7195Z" fill="#D9D8F8"/>
<path d="M26.9194 83.1135C26.9194 80.1825 29.2955 77.8065 32.2265 77.8065H34.0197C38.0968 77.8065 40.1314 82.7423 37.2386 85.6153V85.6153C35.4655 87.3762 35.4365 90.235 37.1735 92.0315L37.3037 92.1661C40.2232 95.1856 38.0835 100.231 33.8834 100.231H32.3341C29.3437 100.231 26.9194 97.8065 26.9194 94.8161V83.1135Z" fill="#D9D8F8"/>
<circle cx="36.6921" cy="29.2458" r="3.71213" fill="#3BC041"/>
<circle cx="36.6921" cy="59.5489" r="3.71213" fill="#5852E5"/>
<circle cx="36.6921" cy="90.0035" r="3.71213" fill="#2F3378"/>
<rect x="22.6304" y="13.8203" width="77.9722" height="31.0024" rx="15.5012" stroke="#2F3378" stroke-width="8.57812"/>
<path d="M98.2831 59.6246V59.6246C98.2831 51.5077 91.703 44.9276 83.586 44.9276H38.2829C30.166 44.9276 23.5859 51.5077 23.5859 59.6246V59.6246C23.5859 67.7416 30.166 74.3216 38.2829 74.3216H60.9345" stroke="#2F3378" stroke-width="8.57812" stroke-linecap="round"/>
<path d="M60.9345 103.716H38.2829C30.166 103.716 23.5859 97.1356 23.5859 89.0187V89.0187C23.5859 80.9017 30.166 74.3217 38.2829 74.3217H60.9345" stroke="#2F3378" stroke-width="8.57812" stroke-linecap="round"/>
<path d="M97.5088 87.3814C96.9387 88.7578 96.103 90.0084 95.0496 91.0619C93.9961 92.1153 92.7455 92.951 91.369 93.5211C89.9926 94.0912 88.5174 94.3847 87.0276 94.3847C85.5378 94.3847 84.0625 94.0912 82.6861 93.5211C81.3097 92.951 80.0591 92.1153 79.0056 91.0619C77.9522 90.0084 77.1165 88.7578 76.5464 87.3814" stroke="#615DE7" stroke-width="8.57812" stroke-linecap="round"/>
<path d="M87.0708 66.2912L87.0003 83.337" stroke="#615DE7" stroke-width="8.57812" stroke-linecap="round"/>
<path d="M72.6768 103.891H99.6284" stroke="#615DE7" stroke-width="8.57812" stroke-linecap="round"/>
<rect x="72.677" y="25.5336" width="16.2122" height="7.42426" rx="3.71213" fill="#2F3378"/>
</svg>
