<svg width="65" height="28" viewBox="0 0 65 28" fill="none" xmlns="http://www.w3.org/2000/svg">
<mask id="mask0_5368_29660" style="mask-type:alpha" maskUnits="userSpaceOnUse" x="0" y="0" width="65" height="28">
<path d="M0 27.8818V0.118164H11.9966V4.26557H6.13541V11.2579H11.2425V15.5424H6.13541V27.8818H0Z" fill="#3A3A3A"/>
<path d="M16.7407 27.8818V0.118164H22.8761V27.8818H16.7407Z" fill="#3A3A3A"/>
<path d="M28.8606 27.8818V0.118164H33.1794L38.8692 13.4858V0.118164H43.9421V27.8818H39.7947L34.1049 13.4858V27.8818H28.8606Z" fill="#3A3A3A"/>
<path d="M49.9185 27.8818V0.118164H54.2373L59.9271 13.4858V0.118164H65V27.8818H60.8526L55.1628 13.4858V27.8818H49.9185Z" fill="#3A3A3A"/>
</mask>
<g mask="url(#mask0_5368_29660)">
<path d="M34.4938 43.8468C38.6765 57.693 22.5812 63.0156 14.0107 63.9461L34.4938 81.8123C46.1193 81.8123 65.4951 69.8395 59.1596 51.415C52.824 32.9906 59.0136 29.0274 74.0451 24.1196C82.5951 21.328 79.1505 9.60336 86.2242 10.658L74.3264 -10.6135C74.427 -10.9908 74.3187 -11.1913 74.0451 -11.1164L74.3264 -10.6135C73.8163 -8.70009 67.9336 -2.24101 50.9786 -4.10641C24.4096 -7.02956 29.2654 26.5389 34.4938 43.8468Z" fill="black"/>
<path d="M18.9093 26.7086C23.4769 41.8279 5.9009 47.6399 -3.45801 48.6559L18.9093 68.1647C31.6043 68.1647 52.7626 55.0911 45.8442 34.9727C38.9258 14.8544 45.6848 10.5268 62.0992 5.16774C71.4357 2.1195 68.694 -5.34695 75.2141 -9.3172L62.404 -32.7501C62.5178 -33.1676 62.3999 -33.3902 62.0992 -33.3078L62.404 -32.7501C61.8318 -30.6502 55.4002 -23.6192 36.9107 -25.6534C7.89751 -28.8453 13.2 7.80954 18.9093 26.7086Z" fill="#EF772E"/>
<path d="M20.1004 27.8417C24.6522 45.1495 6.19896 46.2661 -1.58319 50.2005L-24.3335 31.1476C-26.4156 18.5177 -17.0984 -4.67625 3.71451 -1.09295C24.5274 2.49035 27.6517 -4.9438 30.2013 -22.1529C31.6516 -31.9414 58.3543 -38.3601 55.9611 -45.8561L64.3697 -29.0768C64.454 -29.068 64.4931 -28.9973 64.4792 -28.8584L64.3697 -29.0768C63.31 -29.1882 55.0999 -19.5285 55.0999 -12.9774C55.0999 5.47275 12.3978 -1.44686 20.1004 27.8417Z" fill="black"/>
</g>
</svg>
