<svg width="618" height="868" viewBox="0 0 618 868" fill="none" xmlns="http://www.w3.org/2000/svg">
<path d="M548.827 206.505C665.437 104.353 547.812 -35.7863 474.422 -93.0869L763.323 -138.937C870.003 -72.6962 980.161 146.644 817.93 278.186C655.698 409.727 690.106 481.056 800.314 611.36C863.001 685.477 765.15 772.53 836.02 803.24L606.663 928.993C605.454 932.999 603.327 934.207 601.24 931.966L606.663 928.993C612.792 908.677 595.301 816.387 429.177 736.753C168.853 611.962 403.065 334.195 548.827 206.505Z" fill="#EF772E"/>
<path d="M308.989 273.643C436.322 162.101 307.874 9.07215 227.733 -53.4993L543.205 -103.559C659.699 -31.2241 779.995 208.288 602.845 351.922C425.694 495.555 463.269 573.444 583.616 715.732C652.07 796.667 584.728 848.981 622.129 922.257L372.188 1062.48C370.873 1066.93 368.534 1068.28 366.239 1065.82L372.188 1062.48C378.801 1040.11 359.506 939.491 178.345 852.647C-105.926 716.375 149.822 413.072 308.989 273.643Z" fill="#FFD7BE"/>
</svg>
