<svg width="165" height="30" viewBox="0 0 165 30" fill="none" xmlns="http://www.w3.org/2000/svg">
<path d="M1.125 23.6938H13.6705V19.8757H5.86364V16.8757H13.0568V13.0575H5.86364V10.0575H13.7045V6.2393H1.125V23.6938ZM22.4065 23.6938H26.9406L29.9065 13.9438H30.0429L33.0088 23.6938H37.5429L42.6906 6.2393H37.4065L35.0201 17.012H34.8838L32.0542 6.2393H27.8951L25.0656 16.9779H24.9292L22.5429 6.2393H17.2588L22.4065 23.6938ZM48.6397 23.6938L49.6454 20.3529H55.4068L56.4124 23.6938H61.5261L55.7647 6.2393H49.2874L43.5261 23.6938H48.6397ZM50.7193 16.8075L52.4579 11.0461H52.5943L54.3329 16.8075H50.7193ZM82.6353 10.6029H83.6836C83.5387 7.9268 81.3824 5.9751 78.2631 5.9751C75.1608 5.9751 72.8171 7.90976 72.8171 10.6029C72.8171 12.7336 74.283 14.1399 77.0188 14.9751L79.0557 15.5887C81.5529 16.3473 82.8739 17.3188 82.8739 19.1512C82.8739 21.4353 80.9222 22.9779 78.1097 22.9779C75.5017 22.9779 73.6438 21.6313 73.4733 19.4666H72.3824C72.5699 22.1342 74.7347 23.9751 78.1097 23.9751C81.6551 23.9751 83.9222 21.9296 83.9222 19.1598C83.9222 16.637 81.962 15.3842 79.354 14.6001L77.4449 14.0376C75.3398 13.4069 73.8654 12.3757 73.8654 10.5688C73.8654 8.48078 75.6892 6.96373 78.2375 6.96373C80.7432 6.96373 82.4563 8.43817 82.6353 10.6029ZM92.8711 23.9666C95.4534 23.9666 97.0387 22.4581 97.6353 21.137L96.6892 20.7535C96.2034 21.7251 95.0017 23.0035 92.8711 23.0035C89.8966 23.0035 88.1154 20.6001 88.0728 17.3785H98.0614V16.7308C98.0614 12.8444 95.5557 10.4069 92.6239 10.4069C89.3767 10.4069 87.0415 13.2961 87.0415 17.2081C87.0415 21.1115 89.3171 23.9666 92.8711 23.9666ZM88.0898 16.4325C88.2943 13.5774 90.1438 11.3785 92.6239 11.3785C95.1125 11.3785 97.0216 13.5944 97.0216 16.4325H88.0898ZM101.641 23.6938H102.681V15.0688C102.681 12.9552 104.257 11.4296 106.439 11.4296C106.712 11.4296 106.891 11.4637 107.027 11.4808V10.4325C106.865 10.424 106.686 10.424 106.499 10.424C104.769 10.424 103.311 11.3103 102.749 12.6484H102.655V10.6029H101.641V23.6938ZM119.79 10.6029H118.674L114.515 22.3558H114.429L110.27 10.6029H109.154L113.884 23.6938H115.06L119.79 10.6029ZM123.091 23.6938H124.122V10.6029H123.091V23.6938ZM123.61 8.28476C124.071 8.28476 124.446 7.91828 124.446 7.46657C124.446 7.01487 124.071 6.64839 123.61 6.64839C123.15 6.64839 122.767 7.01487 122.767 7.46657C122.767 7.91828 123.15 8.28476 123.61 8.28476ZM133.386 23.9666C135.943 23.9666 137.869 22.2961 138.244 19.8757H137.187C136.846 21.7762 135.304 23.0035 133.386 23.0035C130.65 23.0035 128.784 20.5063 128.784 17.174C128.784 13.799 130.727 11.3785 133.386 11.3785C135.355 11.3785 136.829 12.691 137.162 14.4552H138.218C137.835 12.0433 135.858 10.4069 133.377 10.4069C130.062 10.4069 127.752 13.3046 127.752 17.191C127.752 21.0774 130.045 23.9666 133.386 23.9666ZM146.894 23.9666C149.477 23.9666 151.062 22.4581 151.659 21.137L150.713 20.7535C150.227 21.7251 149.025 23.0035 146.894 23.0035C143.92 23.0035 142.139 20.6001 142.096 17.3785H152.085V16.7308C152.085 12.8444 149.579 10.4069 146.647 10.4069C143.4 10.4069 141.065 13.2961 141.065 17.2081C141.065 21.1115 143.341 23.9666 146.894 23.9666ZM142.113 16.4325C142.318 13.5774 144.167 11.3785 146.647 11.3785C149.136 11.3785 151.045 13.5944 151.045 16.4325H142.113ZM163.983 13.424C163.352 11.4978 161.971 10.4069 159.755 10.4069C157.25 10.4069 155.451 11.8558 155.451 13.9694C155.451 15.6569 156.517 16.8416 158.656 17.3615L160.744 17.8728C162.304 18.2563 163.079 19.1001 163.079 20.3103C163.079 21.8956 161.647 23.012 159.508 23.012C157.573 23.012 156.372 22.1086 155.997 20.3956L155 20.6512C155.451 22.7819 157.079 23.9666 159.517 23.9666C162.244 23.9666 164.136 22.4495 164.136 20.2762C164.136 18.5887 163.079 17.4211 161.017 16.9098L159.005 16.4069C157.301 15.9893 156.483 15.1796 156.483 13.9353C156.483 12.4012 157.829 11.3529 159.755 11.3529C161.545 11.3529 162.542 12.2478 163.019 13.6796L163.983 13.424Z" fill="white"/>
</svg>
