<svg width="166" height="30" viewBox="0 0 166 30" fill="none" xmlns="http://www.w3.org/2000/svg">
<path d="M1.125 23.5H13.6705V19.6818H5.86364V16.6818H13.0568V12.8636H5.86364V9.86364H13.7045V6.04545H1.125V23.5ZM22.4065 23.5H26.9406L29.9065 13.75H30.0429L33.0088 23.5H37.5429L42.6906 6.04545H37.4065L35.0201 16.8182H34.8838L32.0542 6.04545H27.8951L25.0656 16.7841H24.9292L22.5429 6.04545H17.2588L22.4065 23.5ZM48.6397 23.5L49.6454 20.1591H55.4068L56.4124 23.5H61.5261L55.7647 6.04545H49.2874L43.5261 23.5H48.6397ZM50.7193 16.6136L52.4579 10.8523H52.5943L54.3329 16.6136H50.7193ZM82.6353 10.4091H83.6836C83.5387 7.73295 81.3824 5.78125 78.2631 5.78125C75.1608 5.78125 72.8171 7.71591 72.8171 10.4091C72.8171 12.5398 74.283 13.946 77.0188 14.7812L79.0557 15.3949C81.5529 16.1534 82.8739 17.125 82.8739 18.9574C82.8739 21.2415 80.9222 22.7841 78.1097 22.7841C75.5017 22.7841 73.6438 21.4375 73.4733 19.2727H72.3824C72.5699 21.9403 74.7347 23.7812 78.1097 23.7812C81.6551 23.7812 83.9222 21.7358 83.9222 18.9659C83.9222 16.4432 81.962 15.1903 79.354 14.4062L77.4449 13.8438C75.3398 13.2131 73.8654 12.1818 73.8654 10.375C73.8654 8.28693 75.6892 6.76989 78.2375 6.76989C80.7432 6.76989 82.4563 8.24432 82.6353 10.4091ZM92.8711 23.7727C95.4534 23.7727 97.0387 22.2642 97.6353 20.9432L96.6892 20.5597C96.2034 21.5312 95.0017 22.8097 92.8711 22.8097C89.8966 22.8097 88.1154 20.4062 88.0728 17.1847H98.0614V16.5369C98.0614 12.6506 95.5557 10.2131 92.6239 10.2131C89.3767 10.2131 87.0415 13.1023 87.0415 17.0142C87.0415 20.9176 89.3171 23.7727 92.8711 23.7727ZM88.0898 16.2386C88.2943 13.3835 90.1438 11.1847 92.6239 11.1847C95.1125 11.1847 97.0216 13.4006 97.0216 16.2386H88.0898ZM101.641 23.5H102.681V14.875C102.681 12.7614 104.257 11.2358 106.439 11.2358C106.712 11.2358 106.891 11.2699 107.027 11.2869V10.2386C106.865 10.2301 106.686 10.2301 106.499 10.2301C104.769 10.2301 103.311 11.1165 102.749 12.4545H102.655V10.4091H101.641V23.5ZM119.79 10.4091H118.674L114.515 22.1619H114.429L110.27 10.4091H109.154L113.884 23.5H115.06L119.79 10.4091ZM123.091 23.5H124.122V10.4091H123.091V23.5ZM123.61 8.09091C124.071 8.09091 124.446 7.72443 124.446 7.27273C124.446 6.82102 124.071 6.45454 123.61 6.45454C123.15 6.45454 122.767 6.82102 122.767 7.27273C122.767 7.72443 123.15 8.09091 123.61 8.09091ZM133.386 23.7727C135.943 23.7727 137.869 22.1023 138.244 19.6818H137.187C136.846 21.5824 135.304 22.8097 133.386 22.8097C130.65 22.8097 128.784 20.3125 128.784 16.9801C128.784 13.6051 130.727 11.1847 133.386 11.1847C135.355 11.1847 136.829 12.4972 137.162 14.2614H138.218C137.835 11.8494 135.858 10.2131 133.377 10.2131C130.062 10.2131 127.752 13.1108 127.752 16.9972C127.752 20.8835 130.045 23.7727 133.386 23.7727ZM146.894 23.7727C149.477 23.7727 151.062 22.2642 151.659 20.9432L150.713 20.5597C150.227 21.5312 149.025 22.8097 146.894 22.8097C143.92 22.8097 142.139 20.4062 142.096 17.1847H152.085V16.5369C152.085 12.6506 149.579 10.2131 146.647 10.2131C143.4 10.2131 141.065 13.1023 141.065 17.0142C141.065 20.9176 143.341 23.7727 146.894 23.7727ZM142.113 16.2386C142.318 13.3835 144.167 11.1847 146.647 11.1847C149.136 11.1847 151.045 13.4006 151.045 16.2386H142.113ZM163.983 13.2301C163.352 11.304 161.971 10.2131 159.755 10.2131C157.25 10.2131 155.451 11.6619 155.451 13.7756C155.451 15.4631 156.517 16.6477 158.656 17.1676L160.744 17.679C162.304 18.0625 163.079 18.9062 163.079 20.1165C163.079 21.7017 161.647 22.8182 159.508 22.8182C157.573 22.8182 156.372 21.9148 155.997 20.2017L155 20.4574C155.451 22.5881 157.079 23.7727 159.517 23.7727C162.244 23.7727 164.136 22.2557 164.136 20.0824C164.136 18.3949 163.079 17.2273 161.017 16.7159L159.005 16.2131C157.301 15.7955 156.483 14.9858 156.483 13.7415C156.483 12.2074 157.829 11.1591 159.755 11.1591C161.545 11.1591 162.542 12.054 163.019 13.4858L163.983 13.2301Z" fill="#090D74"/>
</svg>
