<svg width="75" height="75" viewBox="0 0 75 75" fill="none" xmlns="http://www.w3.org/2000/svg">
<g filter="url(#filter0_d_5784_27988)">
<path d="M3 37.1332C3 37.1332 3 23.2044 5.43579 11.4881C6.34712 7.10395 10.8564 4.93318 15.1743 4.27604C15.1743 4.27604 22.4703 2.63326 37.5 2.63318C52.5297 2.6331 59.8257 4.27604 59.8257 4.27604C64.4851 4.93318 68.6529 7.10395 69.5642 11.4881C72 23.2044 72 37.1332 72 37.1332C72 37.1332 72 51.0619 69.5642 62.7783C68.6529 67.1624 64.4851 69.3332 59.8257 69.9903C59.8257 69.9903 52.5297 71.6333 37.5 71.6332C22.4703 71.6331 15.1743 69.9903 15.1743 69.9903C10.8564 69.3332 6.34712 67.1624 5.43579 62.7783C3 51.0619 3 37.1332 3 37.1332Z" fill="#00A912"/>
</g>
<path d="M31.4723 52.9426C33.2797 52.9534 35.0712 52.6053 36.7431 51.9185C38.4132 52.6111 40.206 52.9594 42.0139 52.9426C47.5031 52.9426 51.8026 50.0135 51.8026 46.2727V40.0351C51.8026 36.2943 47.5031 33.3652 42.0139 33.3652C41.7594 33.3652 41.5095 33.3773 41.261 33.3908V26.3369C41.261 22.673 36.9615 19.8116 31.4723 19.8116C25.9831 19.8116 21.6836 22.673 21.6836 26.3369V46.4173C21.6836 50.0813 25.9831 52.9426 31.4723 52.9426ZM48.7907 46.2727C48.7907 48.0031 46.0077 49.9307 42.0139 49.9307C38.0202 49.9307 35.2372 48.0031 35.2372 46.2727V44.8797C37.2766 46.1201 39.6275 46.7527 42.0139 46.7034C44.4004 46.7527 46.7513 46.1201 48.7907 44.8797V46.2727ZM42.0139 36.3771C46.0077 36.3771 48.7907 38.3047 48.7907 40.0351C48.7907 41.7654 46.0077 43.6915 42.0139 43.6915C38.0202 43.6915 35.2372 41.7639 35.2372 40.0351C35.2372 38.3062 38.0202 36.3771 42.0139 36.3771ZM31.4723 22.8236C35.4661 22.8236 38.2491 24.6759 38.2491 26.3369C38.2491 27.998 35.4661 29.8518 31.4723 29.8518C27.4785 29.8518 24.6955 27.9995 24.6955 26.3369C24.6955 24.6744 27.4785 22.8236 31.4723 22.8236ZM24.6955 31.0792C26.7434 32.2954 29.091 32.9136 31.4723 32.8637C33.8536 32.9136 36.2012 32.2954 38.2491 31.0792V33.8622C36.6078 34.2759 35.1027 35.1099 33.8818 36.2822C33.09 36.4536 32.2824 36.5414 31.4723 36.5443C27.4785 36.5443 24.6955 34.692 24.6955 33.0309V31.0792ZM24.6955 37.7731C26.7438 38.9881 29.0912 39.6058 31.4723 39.5562C31.7403 39.5562 31.9994 39.5231 32.2629 39.5095C32.2405 39.6838 32.2279 39.8593 32.2253 40.0351V43.175C31.9723 43.1901 31.7283 43.2382 31.4723 43.2382C27.4785 43.2382 24.6955 41.3859 24.6955 39.7233V37.7731ZM24.6955 44.4656C26.7434 45.6818 29.091 46.3 31.4723 46.2501C31.7253 46.2501 31.9738 46.2306 32.2253 46.2185V46.2727C32.2468 47.5547 32.7395 48.7839 33.6092 49.7259C32.9046 49.8589 32.1893 49.9275 31.4723 49.9307C27.4785 49.9307 24.6955 48.0784 24.6955 46.4173V44.4656Z" fill="white"/>
<defs>
<filter id="filter0_d_5784_27988" x="0.371429" y="0.00460744" width="74.2571" height="74.2571" filterUnits="userSpaceOnUse" color-interpolation-filters="sRGB">
<feFlood flood-opacity="0" result="BackgroundImageFix"/>
<feColorMatrix in="SourceAlpha" type="matrix" values="0 0 0 0 0 0 0 0 0 0 0 0 0 0 0 0 0 0 127 0" result="hardAlpha"/>
<feOffset/>
<feGaussianBlur stdDeviation="1.31429"/>
<feComposite in2="hardAlpha" operator="out"/>
<feColorMatrix type="matrix" values="0 0 0 0 0.792157 0 0 0 0 0.792157 0 0 0 0 0.792157 0 0 0 0.25 0"/>
<feBlend mode="normal" in2="BackgroundImageFix" result="effect1_dropShadow_5784_27988"/>
<feBlend mode="normal" in="SourceGraphic" in2="effect1_dropShadow_5784_27988" result="shape"/>
</filter>
</defs>
</svg>
