<svg width="75" height="75" viewBox="0 0 75 75" fill="none" xmlns="http://www.w3.org/2000/svg">
<g filter="url(#filter0_d_5784_27994)">
<path d="M3 37.1332C3 37.1332 3 23.2044 5.43579 11.4881C6.34712 7.10395 10.8564 4.93318 15.1743 4.27604C15.1743 4.27604 22.4703 2.63326 37.5 2.63318C52.5297 2.6331 59.8257 4.27604 59.8257 4.27604C64.4851 4.93318 68.6529 7.10395 69.5642 11.4881C72 23.2044 72 37.1332 72 37.1332C72 37.1332 72 51.0619 69.5642 62.7783C68.6529 67.1624 64.4851 69.3332 59.8257 69.9903C59.8257 69.9903 52.5297 71.6333 37.5 71.6332C22.4703 71.6331 15.1743 69.9903 15.1743 69.9903C10.8564 69.3332 6.34712 67.1624 5.43579 62.7783C3 51.0619 3 37.1332 3 37.1332Z" fill="#5852E3"/>
</g>
<path d="M24.6954 52.9426C24.296 52.9426 23.913 52.7839 23.6305 52.5015C23.3481 52.2191 23.1895 51.836 23.1895 51.4366V46.9188C23.1895 46.5194 23.3481 46.1363 23.6305 45.8539C23.913 45.5715 24.296 45.4128 24.6954 45.4128C25.0948 45.4128 25.4779 45.5715 25.7603 45.8539C26.0427 46.1363 26.2014 46.5194 26.2014 46.9188V51.4366C26.2014 51.836 26.0427 52.2191 25.7603 52.5015C25.4779 52.7839 25.0948 52.9426 24.6954 52.9426ZM38.249 51.4366V40.895C38.249 40.4956 38.0903 40.1125 37.8079 39.8301C37.5255 39.5477 37.1424 39.389 36.743 39.389C36.3436 39.389 35.9606 39.5477 35.6782 39.8301C35.3957 40.1125 35.2371 40.4956 35.2371 40.895V51.4366C35.2371 51.836 35.3957 52.2191 35.6782 52.5015C35.9606 52.7839 36.3436 52.9426 36.743 52.9426C37.1424 52.9426 37.5255 52.7839 37.8079 52.5015C38.0903 52.2191 38.249 51.836 38.249 51.4366ZM48.7906 34.8712C48.3912 34.8712 48.0082 35.0298 47.7258 35.3123C47.4434 35.5947 47.2847 35.9777 47.2847 36.3771V51.4366C47.2847 51.836 47.4434 52.2191 47.7258 52.5015C48.0082 52.7839 48.3912 52.9426 48.7906 52.9426C49.19 52.9426 49.5731 52.7839 49.8555 52.5015C50.1379 52.2191 50.2966 51.836 50.2966 51.4366V36.3771C50.2966 35.9777 50.1379 35.5947 49.8555 35.3123C49.5731 35.0298 49.19 34.8712 48.7906 34.8712ZM49.3659 19.9276C49.1837 19.8513 48.9882 19.8118 48.7906 19.8116H42.7668C42.3674 19.8116 41.9844 19.9703 41.702 20.2527C41.4195 20.5351 41.2609 20.9182 41.2609 21.3176C41.2609 21.717 41.4195 22.1 41.702 22.3825C41.9844 22.6649 42.3674 22.8236 42.7668 22.8236H45.1553L36.743 31.2358L31.7839 26.2767C31.5015 25.9944 31.1185 25.8358 30.7192 25.8358C30.3199 25.8358 29.9369 25.9944 29.6545 26.2767L23.6307 32.3005C23.3564 32.5845 23.2046 32.9649 23.208 33.3598C23.2114 33.7547 23.3698 34.1324 23.649 34.4116C23.9283 34.6908 24.306 34.8492 24.7008 34.8526C25.0957 34.856 25.4761 34.7042 25.7601 34.4299L30.7192 29.4708L35.6783 34.4299C35.9607 34.7122 36.3437 34.8708 36.743 34.8708C37.1424 34.8708 37.5253 34.7122 37.8077 34.4299L47.2847 24.953V27.3414C47.2847 27.7408 47.4434 28.1239 47.7258 28.4063C48.0082 28.6887 48.3912 28.8474 48.7906 28.8474C49.19 28.8474 49.5731 28.6887 49.8555 28.4063C50.1379 28.1239 50.2966 27.7408 50.2966 27.3414V21.3176C50.2963 21.0199 50.2077 20.7289 50.042 20.4815C49.8764 20.2341 49.6411 20.0413 49.3659 19.9276V19.9276Z" fill="white"/>
<defs>
<filter id="filter0_d_5784_27994" x="0.371429" y="0.00460744" width="74.2571" height="74.2571" filterUnits="userSpaceOnUse" color-interpolation-filters="sRGB">
<feFlood flood-opacity="0" result="BackgroundImageFix"/>
<feColorMatrix in="SourceAlpha" type="matrix" values="0 0 0 0 0 0 0 0 0 0 0 0 0 0 0 0 0 0 127 0" result="hardAlpha"/>
<feOffset/>
<feGaussianBlur stdDeviation="1.31429"/>
<feComposite in2="hardAlpha" operator="out"/>
<feColorMatrix type="matrix" values="0 0 0 0 0.792157 0 0 0 0 0.792157 0 0 0 0 0.792157 0 0 0 0.25 0"/>
<feBlend mode="normal" in2="BackgroundImageFix" result="effect1_dropShadow_5784_27994"/>
<feBlend mode="normal" in="SourceGraphic" in2="effect1_dropShadow_5784_27994" result="shape"/>
</filter>
</defs>
</svg>
