<svg width="75" height="75" viewBox="0 0 75 75" fill="none" xmlns="http://www.w3.org/2000/svg">
<g filter="url(#filter0_d_5784_28000)">
<path d="M3 37.1332C3 37.1332 3 23.2044 5.43579 11.4881C6.34712 7.10395 10.8564 4.93318 15.1743 4.27604C15.1743 4.27604 22.4703 2.63326 37.5 2.63318C52.5297 2.6331 59.8257 4.27604 59.8257 4.27604C64.4851 4.93318 68.6529 7.10395 69.5642 11.4881C72 23.2044 72 37.1332 72 37.1332C72 37.1332 72 51.0619 69.5642 62.7783C68.6529 67.1624 64.4851 69.3332 59.8257 69.9903C59.8257 69.9903 52.5297 71.6333 37.5 71.6332C22.4703 71.6331 15.1743 69.9903 15.1743 69.9903C10.8564 69.3332 6.34712 67.1624 5.43579 62.7783C3 51.0619 3 37.1332 3 37.1332Z" fill="#EF782F"/>
</g>
<path d="M36.7427 52.9426C39.238 52.9449 41.6724 52.1717 43.709 50.7298C45.7456 49.288 47.2838 47.2489 48.1108 44.8946C48.9377 42.5402 49.0126 39.9871 48.3249 37.5884C47.6373 35.1897 46.2211 33.0639 44.2724 31.5053V27.3414C44.2729 25.6834 43.7262 24.0716 42.7171 22.7561C41.7079 21.4406 40.2928 20.4949 38.6913 20.0659C37.0898 19.6368 35.3915 19.7483 33.8599 20.383C32.3282 21.0178 31.0489 22.1403 30.2204 23.5765C30.0348 23.9213 29.9909 24.3248 30.0978 24.7014C30.2047 25.0781 30.4542 25.3983 30.7932 25.5941C31.1322 25.79 31.5342 25.8461 31.9139 25.7506C32.2936 25.6551 32.6212 25.4154 32.8272 25.0824C33.3238 24.2197 34.0915 23.5451 35.0109 23.1636C35.9303 22.782 36.95 22.7148 37.9116 22.9723C38.8732 23.2299 39.7227 23.7978 40.3283 24.5879C40.9339 25.3779 41.2616 26.3459 41.2605 27.3414V29.7343C39.6126 29.0644 37.8368 28.7677 36.0606 28.8656C34.2844 28.9634 32.552 29.4534 30.9876 30.3003C29.4233 31.1473 28.0659 32.3301 27.013 33.7639C25.96 35.1976 25.2377 36.8468 24.8978 38.5929C24.5579 40.339 24.6088 42.1387 25.047 43.8628C25.4853 45.5868 26.2998 47.1925 27.4322 48.5643C28.5646 49.9362 29.9868 51.0403 31.5966 51.7973C33.2064 52.5543 34.9638 52.9454 36.7427 52.9426ZM36.7427 31.8592C38.5298 31.8592 40.2767 32.3892 41.7626 33.382C43.2486 34.3749 44.4067 35.7861 45.0906 37.4371C45.7745 39.0882 45.9534 40.905 45.6048 42.6577C45.2561 44.4105 44.3956 46.0205 43.1319 47.2842C41.8682 48.5478 40.2582 49.4084 38.5054 49.757C36.7527 50.1057 34.9359 49.9267 33.2848 49.2429C31.6338 48.559 30.2226 47.4008 29.2297 45.9149C28.2369 44.429 27.707 42.682 27.707 40.8949C27.7093 38.4993 28.6621 36.2024 30.3561 34.5084C32.0501 32.8144 34.347 31.8616 36.7427 31.8592ZM33.7308 39.389C33.7284 38.8597 33.8655 38.3392 34.1283 37.8798C34.3911 37.4203 34.7704 37.0383 35.2278 36.7721C35.6853 36.5059 36.2048 36.365 36.7341 36.3635C37.2634 36.362 37.7837 36.5 38.2427 36.7636C38.7016 37.0272 39.083 37.4071 39.3485 37.865C39.6139 38.3229 39.7539 38.8427 39.7545 39.3719C39.7551 39.9012 39.6163 40.4213 39.3519 40.8798C39.0875 41.3383 38.707 41.7191 38.2486 41.9837V45.4128C38.2486 45.8122 38.09 46.1952 37.8075 46.4777C37.5251 46.7601 37.1421 46.9188 36.7427 46.9188C36.3433 46.9188 35.9602 46.7601 35.6778 46.4777C35.3954 46.1952 35.2367 45.8122 35.2367 45.4128V41.9837C34.7802 41.7213 34.4008 41.3433 34.1365 40.8879C33.8722 40.4325 33.7322 39.9156 33.7308 39.389Z" fill="white"/>
<defs>
<filter id="filter0_d_5784_28000" x="0.371429" y="0.00460744" width="74.2571" height="74.2571" filterUnits="userSpaceOnUse" color-interpolation-filters="sRGB">
<feFlood flood-opacity="0" result="BackgroundImageFix"/>
<feColorMatrix in="SourceAlpha" type="matrix" values="0 0 0 0 0 0 0 0 0 0 0 0 0 0 0 0 0 0 127 0" result="hardAlpha"/>
<feOffset/>
<feGaussianBlur stdDeviation="1.31429"/>
<feComposite in2="hardAlpha" operator="out"/>
<feColorMatrix type="matrix" values="0 0 0 0 0.792157 0 0 0 0 0.792157 0 0 0 0 0.792157 0 0 0 0.25 0"/>
<feBlend mode="normal" in2="BackgroundImageFix" result="effect1_dropShadow_5784_28000"/>
<feBlend mode="normal" in="SourceGraphic" in2="effect1_dropShadow_5784_28000" result="shape"/>
</filter>
</defs>
</svg>
