<svg width="211" height="29" viewBox="0 0 211 29" fill="none" xmlns="http://www.w3.org/2000/svg">
<rect width="211" height="29" fill="#E5E5E5"/>
<rect width="1440" height="6260.63" transform="translate(-869 -4823)" fill="white"/>
<mask id="path-1-outside-1_531_2268" maskUnits="userSpaceOnUse" x="0" y="-1" width="211" height="30" fill="black">
<rect fill="white" y="-1" width="211" height="30"/>
<path fill-rule="evenodd" clip-rule="evenodd" d="M96.9882 5.58759C96.2425 5.63 95.4975 5.67571 94.7521 5.71812C84.8743 6.11283 74.9939 6.58581 65.1034 7.16972C58.8911 7.53506 54.5653 7.81234 51.0071 8.06678C34.9164 8.9247 18.8648 10.1643 2.92452 11.9127C2.63159 11.9454 2.48315 12.004 2.46456 12.0138C2.0431 12.2128 2.0069 12.5554 2.0007 12.7217C1.99254 12.9566 2.05094 13.2664 2.43553 13.4719C2.48153 13.4948 2.58396 13.5502 2.75979 13.5633C2.83188 13.5698 3.7074 13.5079 5.36321 13.3807C5.27514 13.5633 5.27122 13.7394 5.3045 13.8993C5.33777 14.0559 5.48359 14.5126 6.09751 14.5615C6.59465 14.6006 10.0387 14.1048 11.3762 13.9743C16.019 13.5241 20.6557 13.0055 25.3018 12.5879C32.5707 11.9323 39.8447 11.3386 47.1197 10.7612C52.0793 10.3633 57.0393 9.97506 62.0015 9.59666C68.2333 9.20521 74.4677 8.84311 80.7041 8.5169C98.6225 8.03086 116.542 7.91993 134.359 8.008C155.592 8.11565 176.935 7.94276 198.031 10.4513L196.98 10.4905L196.605 10.5035C187.426 9.66191 176.384 10.3143 168.607 10.236C135.122 9.90328 102.169 10.9895 68.8126 13.6579C55.7204 14.7083 42.6354 16.173 29.613 17.8529C25.1091 18.4368 13.4139 19.8101 11.8217 20.3222C11.278 20.4951 11.1315 20.8703 11.0998 21.0008C11.0522 21.1965 11.0728 21.3857 11.1657 21.5716C11.2261 21.6923 11.3285 21.8326 11.5288 21.9403C11.6051 21.9827 11.7435 22.0381 11.9597 22.0675C12.1574 22.0936 12.5091 22.1099 13.0369 22.1099C55.5811 21.937 97.9636 16.9167 140.436 14.7638C156.11 13.9678 171.784 13.2143 187.462 12.4803C190.531 12.3368 193.604 12.2422 196.677 12.1313C197.323 12.1933 197.956 12.2617 198.579 12.34L191.52 12.7119C177.451 13.4524 163.42 14.5028 149.377 15.6576C116.855 18.3292 84.4809 22.7753 51.9306 25.0033C51.4817 25.0359 51.1421 25.4241 51.1728 25.8742C51.2035 26.3244 51.5933 26.6637 52.0421 26.6311C84.5996 24.4031 116.982 19.9537 149.511 17.2821C163.538 16.1306 177.552 15.0802 191.605 14.3397C196.602 14.0787 203.599 13.7101 204.933 13.635C205.093 13.6252 205.184 13.6188 205.201 13.6155C205.586 13.5731 205.723 13.3447 205.742 13.3186C205.941 13.074 205.958 12.8228 205.896 12.5912C205.856 12.4477 205.755 12.1476 205.341 12.0236C205.23 11.991 205.119 11.9583 205.005 11.929C206.232 11.9094 207.256 11.8834 207.54 11.8181C208.14 11.6779 208.234 11.2146 208.248 11.045C208.261 10.8656 208.225 10.6731 208.081 10.4839C208.022 10.4056 207.925 10.3012 207.748 10.2164C207.66 10.1773 207.461 10.112 207.112 10.0566C195.884 8.28529 184.572 7.3948 173.226 6.93159L180.262 6.98702C180.36 6.98702 180.406 6.98376 180.416 6.98376C180.83 6.94787 180.974 6.69342 181.006 6.64776C181.163 6.4292 181.192 6.2041 181.137 5.98229C181.133 5.96598 181.042 5.53211 180.605 5.3951L185.169 5.33641C186.095 5.32662 186.555 5.31362 186.636 5.3071C187.038 5.26795 187.181 5.03302 187.211 4.99388C187.403 4.75248 187.423 4.5013 187.351 4.25665C187.322 4.15553 187.22 3.79018 186.728 3.69232C186.702 3.6858 186.574 3.66954 186.353 3.66628C184.327 3.6304 169.706 3.6597 164.083 3.69232C155.05 3.74451 146.014 3.80001 136.982 3.98269C130.415 4.11317 123.855 4.31863 117.295 4.58612C98.8333 4.14248 80.3903 3.38897 62.1669 2.0026C61.718 1.96672 61.3259 2.30599 61.2917 2.75289C61.2577 3.20305 61.5944 3.59448 62.0429 3.63036C73.6206 4.50785 85.2866 5.13743 96.9882 5.58759ZM166.402 11.8474C133.72 11.5832 101.524 12.676 68.9428 15.2856C55.8767 16.3295 42.818 17.7942 29.8217 19.4709C28.1476 19.6894 25.463 20.0124 22.6873 20.3581C61.9627 19.5622 101.12 15.1226 140.355 13.1327C149.035 12.6924 157.718 12.265 166.402 11.8474Z"/>
</mask>
<path fill-rule="evenodd" clip-rule="evenodd" d="M96.9882 5.58759C96.2425 5.63 95.4975 5.67571 94.7521 5.71812C84.8743 6.11283 74.9939 6.58581 65.1034 7.16972C58.8911 7.53506 54.5653 7.81234 51.0071 8.06678C34.9164 8.9247 18.8648 10.1643 2.92452 11.9127C2.63159 11.9454 2.48315 12.004 2.46456 12.0138C2.0431 12.2128 2.0069 12.5554 2.0007 12.7217C1.99254 12.9566 2.05094 13.2664 2.43553 13.4719C2.48153 13.4948 2.58396 13.5502 2.75979 13.5633C2.83188 13.5698 3.7074 13.5079 5.36321 13.3807C5.27514 13.5633 5.27122 13.7394 5.3045 13.8993C5.33777 14.0559 5.48359 14.5126 6.09751 14.5615C6.59465 14.6006 10.0387 14.1048 11.3762 13.9743C16.019 13.5241 20.6557 13.0055 25.3018 12.5879C32.5707 11.9323 39.8447 11.3386 47.1197 10.7612C52.0793 10.3633 57.0393 9.97506 62.0015 9.59666C68.2333 9.20521 74.4677 8.84311 80.7041 8.5169C98.6225 8.03086 116.542 7.91993 134.359 8.008C155.592 8.11565 176.935 7.94276 198.031 10.4513L196.98 10.4905L196.605 10.5035C187.426 9.66191 176.384 10.3143 168.607 10.236C135.122 9.90328 102.169 10.9895 68.8126 13.6579C55.7204 14.7083 42.6354 16.173 29.613 17.8529C25.1091 18.4368 13.4139 19.8101 11.8217 20.3222C11.278 20.4951 11.1315 20.8703 11.0998 21.0008C11.0522 21.1965 11.0728 21.3857 11.1657 21.5716C11.2261 21.6923 11.3285 21.8326 11.5288 21.9403C11.6051 21.9827 11.7435 22.0381 11.9597 22.0675C12.1574 22.0936 12.5091 22.1099 13.0369 22.1099C55.5811 21.937 97.9636 16.9167 140.436 14.7638C156.11 13.9678 171.784 13.2143 187.462 12.4803C190.531 12.3368 193.604 12.2422 196.677 12.1313C197.323 12.1933 197.956 12.2617 198.579 12.34L191.52 12.7119C177.451 13.4524 163.42 14.5028 149.377 15.6576C116.855 18.3292 84.4809 22.7753 51.9306 25.0033C51.4817 25.0359 51.1421 25.4241 51.1728 25.8742C51.2035 26.3244 51.5933 26.6637 52.0421 26.6311C84.5996 24.4031 116.982 19.9537 149.511 17.2821C163.538 16.1306 177.552 15.0802 191.605 14.3397C196.602 14.0787 203.599 13.7101 204.933 13.635C205.093 13.6252 205.184 13.6188 205.201 13.6155C205.586 13.5731 205.723 13.3447 205.742 13.3186C205.941 13.074 205.958 12.8228 205.896 12.5912C205.856 12.4477 205.755 12.1476 205.341 12.0236C205.23 11.991 205.119 11.9583 205.005 11.929C206.232 11.9094 207.256 11.8834 207.54 11.8181C208.14 11.6779 208.234 11.2146 208.248 11.045C208.261 10.8656 208.225 10.6731 208.081 10.4839C208.022 10.4056 207.925 10.3012 207.748 10.2164C207.66 10.1773 207.461 10.112 207.112 10.0566C195.884 8.28529 184.572 7.3948 173.226 6.93159L180.262 6.98702C180.36 6.98702 180.406 6.98376 180.416 6.98376C180.83 6.94787 180.974 6.69342 181.006 6.64776C181.163 6.4292 181.192 6.2041 181.137 5.98229C181.133 5.96598 181.042 5.53211 180.605 5.3951L185.169 5.33641C186.095 5.32662 186.555 5.31362 186.636 5.3071C187.038 5.26795 187.181 5.03302 187.211 4.99388C187.403 4.75248 187.423 4.5013 187.351 4.25665C187.322 4.15553 187.22 3.79018 186.728 3.69232C186.702 3.6858 186.574 3.66954 186.353 3.66628C184.327 3.6304 169.706 3.6597 164.083 3.69232C155.05 3.74451 146.014 3.80001 136.982 3.98269C130.415 4.11317 123.855 4.31863 117.295 4.58612C98.8333 4.14248 80.3903 3.38897 62.1669 2.0026C61.718 1.96672 61.3259 2.30599 61.2917 2.75289C61.2577 3.20305 61.5944 3.59448 62.0429 3.63036C73.6206 4.50785 85.2866 5.13743 96.9882 5.58759ZM166.402 11.8474C133.72 11.5832 101.524 12.676 68.9428 15.2856C55.8767 16.3295 42.818 17.7942 29.8217 19.4709C28.1476 19.6894 25.463 20.0124 22.6873 20.3581C61.9627 19.5622 101.12 15.1226 140.355 13.1327C149.035 12.6924 157.718 12.265 166.402 11.8474Z" fill="#00ACFF"/>
<path fill-rule="evenodd" clip-rule="evenodd" d="M96.9882 5.58759C96.2425 5.63 95.4975 5.67571 94.7521 5.71812C84.8743 6.11283 74.9939 6.58581 65.1034 7.16972C58.8911 7.53506 54.5653 7.81234 51.0071 8.06678C34.9164 8.9247 18.8648 10.1643 2.92452 11.9127C2.63159 11.9454 2.48315 12.004 2.46456 12.0138C2.0431 12.2128 2.0069 12.5554 2.0007 12.7217C1.99254 12.9566 2.05094 13.2664 2.43553 13.4719C2.48153 13.4948 2.58396 13.5502 2.75979 13.5633C2.83188 13.5698 3.7074 13.5079 5.36321 13.3807C5.27514 13.5633 5.27122 13.7394 5.3045 13.8993C5.33777 14.0559 5.48359 14.5126 6.09751 14.5615C6.59465 14.6006 10.0387 14.1048 11.3762 13.9743C16.019 13.5241 20.6557 13.0055 25.3018 12.5879C32.5707 11.9323 39.8447 11.3386 47.1197 10.7612C52.0793 10.3633 57.0393 9.97506 62.0015 9.59666C68.2333 9.20521 74.4677 8.84311 80.7041 8.5169C98.6225 8.03086 116.542 7.91993 134.359 8.008C155.592 8.11565 176.935 7.94276 198.031 10.4513L196.98 10.4905L196.605 10.5035C187.426 9.66191 176.384 10.3143 168.607 10.236C135.122 9.90328 102.169 10.9895 68.8126 13.6579C55.7204 14.7083 42.6354 16.173 29.613 17.8529C25.1091 18.4368 13.4139 19.8101 11.8217 20.3222C11.278 20.4951 11.1315 20.8703 11.0998 21.0008C11.0522 21.1965 11.0728 21.3857 11.1657 21.5716C11.2261 21.6923 11.3285 21.8326 11.5288 21.9403C11.6051 21.9827 11.7435 22.0381 11.9597 22.0675C12.1574 22.0936 12.5091 22.1099 13.0369 22.1099C55.5811 21.937 97.9636 16.9167 140.436 14.7638C156.11 13.9678 171.784 13.2143 187.462 12.4803C190.531 12.3368 193.604 12.2422 196.677 12.1313C197.323 12.1933 197.956 12.2617 198.579 12.34L191.52 12.7119C177.451 13.4524 163.42 14.5028 149.377 15.6576C116.855 18.3292 84.4809 22.7753 51.9306 25.0033C51.4817 25.0359 51.1421 25.4241 51.1728 25.8742C51.2035 26.3244 51.5933 26.6637 52.0421 26.6311C84.5996 24.4031 116.982 19.9537 149.511 17.2821C163.538 16.1306 177.552 15.0802 191.605 14.3397C196.602 14.0787 203.599 13.7101 204.933 13.635C205.093 13.6252 205.184 13.6188 205.201 13.6155C205.586 13.5731 205.723 13.3447 205.742 13.3186C205.941 13.074 205.958 12.8228 205.896 12.5912C205.856 12.4477 205.755 12.1476 205.341 12.0236C205.23 11.991 205.119 11.9583 205.005 11.929C206.232 11.9094 207.256 11.8834 207.54 11.8181C208.14 11.6779 208.234 11.2146 208.248 11.045C208.261 10.8656 208.225 10.6731 208.081 10.4839C208.022 10.4056 207.925 10.3012 207.748 10.2164C207.66 10.1773 207.461 10.112 207.112 10.0566C195.884 8.28529 184.572 7.3948 173.226 6.93159L180.262 6.98702C180.36 6.98702 180.406 6.98376 180.416 6.98376C180.83 6.94787 180.974 6.69342 181.006 6.64776C181.163 6.4292 181.192 6.2041 181.137 5.98229C181.133 5.96598 181.042 5.53211 180.605 5.3951L185.169 5.33641C186.095 5.32662 186.555 5.31362 186.636 5.3071C187.038 5.26795 187.181 5.03302 187.211 4.99388C187.403 4.75248 187.423 4.5013 187.351 4.25665C187.322 4.15553 187.22 3.79018 186.728 3.69232C186.702 3.6858 186.574 3.66954 186.353 3.66628C184.327 3.6304 169.706 3.6597 164.083 3.69232C155.05 3.74451 146.014 3.80001 136.982 3.98269C130.415 4.11317 123.855 4.31863 117.295 4.58612C98.8333 4.14248 80.3903 3.38897 62.1669 2.0026C61.718 1.96672 61.3259 2.30599 61.2917 2.75289C61.2577 3.20305 61.5944 3.59448 62.0429 3.63036C73.6206 4.50785 85.2866 5.13743 96.9882 5.58759ZM166.402 11.8474C133.72 11.5832 101.524 12.676 68.9428 15.2856C55.8767 16.3295 42.818 17.7942 29.8217 19.4709C28.1476 19.6894 25.463 20.0124 22.6873 20.3581C61.9627 19.5622 101.12 15.1226 140.355 13.1327C149.035 12.6924 157.718 12.265 166.402 11.8474Z" stroke="#00ACFF" stroke-width="4" mask="url(#path-1-outside-1_531_2268)"/>
</svg>
